<svg width="291" height="103" viewBox="0 0 291 103" fill="none" xmlns="http://www.w3.org/2000/svg">
<path d="M161.571 20.7789C161.327 20.7563 160.91 20.8589 160.791 21.0015C160.557 21.3001 160.434 22.2212 160.379 22.6451C160.235 23.9888 160.206 26.0803 160.381 26.8988C160.479 27.3427 160.669 27.9159 160.817 28.1718C161.054 28.569 161.727 29.1382 161.812 29.0849C161.883 29.0223 161.603 28.1038 161.33 27.8079C160.993 27.456 160.06 27.2 159.42 27.132C158.543 27.0641 156.71 27.1894 154.919 27.4C153.914 27.5386 152.611 27.7572 152.203 27.9785C151.992 28.0985 151.74 28.3917 151.7 28.561C151.664 28.7503 151.748 29.0742 151.882 29.2902C152.139 29.6861 152.94 30.4806 153.24 30.6392C153.461 30.7498 153.786 30.8125 154.004 30.7845C154.934 30.6512 157.484 30.5472 158.725 30.5099C159.668 30.4832 160.246 30.4459 160.381 30.6392C160.397 30.6645 160.395 36.7377 160.397 36.7724C160.398 37.0603 160.314 37.2363 160.122 37.2749C160.098 37.2789 154.469 37.5415 153.801 37.6108C153.363 37.6655 152.404 37.7881 152.093 37.9814C151.931 38.088 151.756 38.3933 151.718 38.5959C151.687 38.8105 151.738 39.1238 151.847 39.3824C151.968 39.649 152.259 40.0902 152.435 40.2355C152.628 40.3888 153.055 40.5581 153.293 40.5914C153.696 40.6367 154.934 40.5128 155.342 40.5035C155.911 40.4901 157.031 40.5501 157.486 40.6021C158.332 40.7047 159.078 40.7314 159.585 40.6301C159.824 40.5781 160.354 40.3808 160.598 40.2475C161.075 39.9769 161.931 39.0265 162.111 38.7465C162.171 38.6492 162.144 38.5999 162.059 38.6466C161.816 38.7932 160.921 39.6063 160.647 40.0929C160.373 40.5954 160.101 41.6538 160.07 42.195C160.044 42.7349 160.142 43.852 160.256 44.3399C160.315 44.5865 160.509 45.0597 160.639 45.2556C160.782 45.4609 161.158 45.7222 161.394 45.7928C161.615 45.8528 162.051 45.8368 162.251 45.7702C162.459 45.6955 163.097 45.1303 163.336 44.8037C163.616 44.4118 164.015 43.2615 164.121 42.5403C164.165 42.2217 164.28 36.7937 164.3 34.4849C164.241 29.6394 164.128 22.5052 164.131 22.4545C164.131 22.1866 164.064 21.8973 163.919 21.752C163.592 21.4361 161.732 20.7976 161.571 20.7789Z" stroke="black" stroke-width="4.2163" stroke-linecap="round" stroke-linejoin="round"/>
<path d="M213.085 71.6132C213.381 71.4039 214.205 70.824 214.488 70.5681C214.829 70.2522 215.151 69.5203 215.211 69.0085C215.305 68.142 215.417 56.4648 215.453 51.6767C215.463 49.3972 215.483 44.3732 215.465 44.0706C215.45 43.7346 215.505 43.476 215.635 43.3907C216.053 43.1361 220.871 43.3254 221.278 43.3094C221.775 43.2854 222.716 43.0868 223.072 42.8629C223.292 42.7202 224.045 41.9764 224.253 41.5592C224.349 41.3605 224.489 40.8194 224.476 40.6701C224.454 40.5101 224.215 40.1462 224.059 40.0342C223.843 39.8876 223.564 39.8023 223.3 39.7889C222.43 39.7409 219.818 39.6476 219.198 39.6596C218.023 39.6836 215.655 40.0289 214.736 40.4154C213.774 40.8273 212.92 41.8071 212.965 41.8871C213.019 41.9511 213.953 41.6258 214.312 41.4045C214.566 41.2419 215.006 40.7727 215.171 40.4821C215.361 40.1368 215.491 39.7369 215.519 39.4623C215.605 38.6332 215.749 36.8416 215.79 35.7886C215.846 32.9972 215.491 22.5945 215.465 22.4785C215.422 22.2932 215.213 21.8666 215.097 21.7333C214.827 21.4387 214.186 21.1908 213.396 21.0535C213.117 21.0149 212.516 20.9322 212.405 20.9482C212.177 20.9855 212.012 21.0562 211.907 21.1615C211.714 21.3681 211.715 22.4452 211.714 22.6131C211.682 25.9603 211.619 33.865 211.59 38.4226C211.56 44.0506 211.52 54.624 211.508 59.5708C211.519 63.3179 211.551 69.8882 211.555 69.9122C211.636 70.3761 212.251 71.2106 212.405 71.2732C212.531 71.3239 212.991 71.4425 213.085 71.6132ZM213.085 71.6132C213.18 71.7904 213.244 72.9248 213.255 73.1434" stroke="black" stroke-width="4.2163" stroke-linecap="round" stroke-linejoin="round"/>
<path d="M128.589 46.45C128.919 46.2594 129.814 45.7329 129.948 45.6009C130.051 45.4996 130.371 45.125 130.457 45.0903C130.607 45.0344 140.652 44.5491 142.656 44.4332C144.462 44.3185 145.119 44.2452 145.443 44.0959C145.792 43.924 146.38 43.1775 146.613 42.6203C146.679 42.4536 146.807 41.9738 146.779 41.8605C146.731 41.6805 146.649 41.5485 146.536 41.4632C146.398 41.3593 146.206 41.3459 146.064 41.2473C145.858 41.1033 145.739 40.7847 145.747 40.5141C145.75 40.4728 145.754 37.9134 145.774 36.8977C145.888 34.285 146.104 29.5208 146.207 27.3693C146.268 25.931 146.264 25.3552 146.142 25.1992C145.904 24.9153 144.575 24.2634 144.319 24.1661C144.051 24.0661 143.564 23.9822 143.38 24.0088C143.2 24.0408 142.9 24.2488 142.8 24.4061C142.525 24.8686 142.095 27.9305 142.037 28.777C141.999 29.3835 142.08 30.4392 142.189 30.8098C142.319 31.2204 142.58 31.7189 142.794 31.9162C142.941 32.0455 143.434 32.3215 143.534 32.3495C143.64 32.3748 143.688 32.3015 143.637 32.2055C143.589 32.1228 143.318 31.7643 143.198 31.639C142.988 31.4257 142.538 31.1311 142.219 31.0124C141.656 30.8112 140.708 30.7245 140.286 30.6885C139.667 30.6472 137.009 30.6272 135.68 30.6605C132.793 30.7885 130.693 31.1258 130.628 31.1497C130.284 31.279 129.711 31.6523 129.511 31.8962C129.4 32.0322 129.028 32.692 129.014 32.728C128.996 32.78 129.676 31.6843 129.871 31.279C130.105 30.7845 130.432 29.5955 130.483 29.1036C130.532 28.5597 130.443 27.5466 130.295 27.1201C130.217 26.9108 129.991 26.5055 129.851 26.3363C129.567 26.003 128.807 25.6138 128.267 25.4391C128.038 25.3725 127.543 25.3658 127.293 25.4485C127.109 25.5138 126.624 25.9177 126.548 26.0483C126.42 26.2909 126.541 27.2094 126.565 27.7452C126.746 32.0948 127.228 44.1266 127.266 44.6305C127.289 44.8931 127.346 45.2876 127.398 45.4303C127.482 45.6489 127.763 46.0435 127.907 46.1101C128.026 46.1661 128.494 46.2807 128.589 46.45ZM128.589 46.45C128.674 46.6126 128.602 47.6204 128.589 47.811" stroke="black" stroke-width="4.2163" stroke-linecap="round" stroke-linejoin="round"/>
<path d="M243.178 27.9185C242.109 26.5295 241.656 25.803 241.648 25.5391C241.652 25.3605 241.862 25.0779 242.064 24.9912C242.622 24.7673 244.655 24.614 245.375 24.602C249.972 24.4834 257.031 24.2941 259.491 24.2261C260.404 24.2074 262.555 24.1728 262.93 24.2781C263.289 24.382 264.018 24.8739 264.433 25.2472C264.653 25.4511 264.875 25.803 264.939 26.0483C265.003 26.3202 264.753 27.4733 264.725 27.6146C264.638 28.0572 264.581 29.1529 264.594 29.7087C264.609 30.2433 264.714 31.5736 264.702 31.9095C264.693 32.1601 264.633 32.5574 264.569 32.8187C264.506 33.0413 264.246 33.5225 264.058 33.7171C263.845 33.9344 263.354 34.1477 262.914 34.2556C262.627 34.321 262.384 34.3543 262.38 34.329C262.399 34.265 263.606 33.7491 264.137 33.6065C264.414 33.5371 264.954 33.5252 265.105 33.6118C265.213 33.6784 265.416 34.2143 265.45 34.3796C265.482 34.5889 265.458 35.1341 265.39 35.3101C265.298 35.5327 265.011 35.8419 264.798 35.9726C264.35 36.2272 263.444 36.5111 262.729 36.5897C262.021 36.663 259.738 36.5498 258.662 36.5711C256.992 36.6204 252.498 36.943 250.488 37.1003C249.256 37.1936 246.944 37.3656 246.149 37.3122C244.927 37.2189 243.373 36.6244 243.405 36.6137C243.441 36.6097 243.679 36.6644 244.028 36.7617C244.486 36.895 244.963 37.1283 245.179 37.3669C245.355 37.5682 245.649 38.1307 245.72 38.3573C245.863 38.8532 245.936 39.7476 245.911 40.5594C245.889 41.3073 245.889 42.3377 245.897 42.3697C245.961 42.6056 246.209 42.7802 246.578 42.8802C246.829 42.9442 247.709 43.2028 247.985 43.2534C248.721 43.3841 251.029 43.4054 251.98 43.4081C254.446 43.3721 258.885 43.2788 260.859 43.2201C262.633 43.1281 264.254 42.9015 264.599 42.8802C264.943 42.8629 265.378 42.8735 265.58 42.9175C265.804 42.9708 266.082 43.1175 266.25 43.2721C266.43 43.4467 266.627 43.7453 266.64 43.9C266.654 44.1492 266.119 44.9677 265.848 45.1463C265.562 45.3276 265.071 45.4382 264.461 45.5196C262.649 45.7302 258.136 46.1487 256.041 46.286C254.978 46.342 252.924 46.434 252.009 46.4513C250.797 46.4567 248.891 46.3167 247.998 46.1207C247.603 46.0328 246.717 45.7715 246.253 45.5729C245.767 45.3609 244.794 44.8237 244.411 44.5398C243.96 44.2012 243.353 43.5254 243.086 43.0495C242.674 42.303 242.056 40.2875 241.857 39.1411C241.809 38.8772 241.857 38.6106 241.897 38.4213C241.909 38.248 241.752 38.0321 241.532 37.9001C240.937 37.5495 240.34 37.007 240.012 36.5511C239.889 36.3658 239.617 35.9632 239.607 35.9099C239.589 35.7979 239.641 35.678 239.607 35.57C239.573 35.4474 239.441 35.3567 239.438 35.2301C239.438 35.1714 239.989 34.6489 240.064 34.6036C240.457 34.373 241.32 34.3143 241.565 34.3183C244.138 34.4143 248.277 34.2796 250.339 34.2023C254.843 33.9824 259.994 33.7198 260.042 33.7198C260.31 33.7118 260.496 33.6505 260.586 33.5132C260.684 33.3532 260.995 29.2795 261.032 27.6826C261.032 27.424 260.967 27.152 260.859 27.0694C260.838 27.0534 255.008 27.228 252.801 27.3107C248.862 27.5226 243.731 27.8772 243.178 27.9185Z" stroke="black" stroke-width="4.2163" stroke-linecap="round" stroke-linejoin="round"/>
<path d="M193.703 30.9791C193.726 30.9711 195.314 30.8631 195.567 30.8565C196.119 30.8431 197.201 30.9685 197.648 31.1524C198.037 31.319 198.803 32.1042 198.974 32.3401C199.221 32.6867 199.662 33.6398 199.654 33.6998C199.634 33.8251 199.464 34.089 199.464 34.3463C199.436 35.2901 199.383 37.3869 199.357 38.5426C199.306 39.7916 199.033 41.6965 199.005 42.1044C198.954 42.8749 199.062 45.193 199.154 46.3913C199.255 47.6964 199.067 49.1027 198.974 49.3413C198.795 49.7679 198.415 50.2651 198.103 50.417C197.918 50.505 197.201 50.6663 197.104 50.673C197.004 50.6743 197.05 50.589 197.18 50.5103C197.458 50.3477 198.699 49.8105 199.246 49.6239C199.515 49.5359 199.938 49.4679 200.059 49.5146C200.175 49.5652 200.212 49.9438 200.164 50.1904C200.106 50.449 199.69 51.3315 199.362 51.906C199.222 52.1433 198.934 52.4579 198.737 52.5712C198.479 52.7125 192.729 52.9964 190.383 53.1124C189.224 53.183 187.042 53.3177 186.018 53.3816C184.635 53.4363 183.392 53.2843 183.247 53.299C183.055 53.3217 182.607 53.5176 182.409 53.6642C182.297 53.7496 181.669 54.2961 181.516 54.4107C181.281 54.5787 180.892 54.648 180.693 54.5387C180.498 54.4214 180.183 53.8882 180.103 53.5909C180.028 53.295 179.379 40.8327 179.148 36.2645C179.136 36.0805 179.104 35.602 179.103 35.55C179.092 35.2687 179.044 35.1008 178.911 34.9795C178.804 34.8848 178.443 34.6142 178.235 34.3889C178.051 34.189 177.619 33.6651 177.553 33.5292C177.458 33.3359 177.429 32.9173 177.382 32.8493C177.339 32.7813 177.231 32.7573 177.211 32.68C177.206 32.6494 177.525 32.0215 177.586 31.9562C177.771 31.7682 178.128 31.6363 178.408 31.619C178.431 31.6176 181.372 31.4483 182.697 31.419C183.928 31.3964 186.037 31.3524 186.914 31.331C187.273 31.3244 187.906 31.1417 188.266 31.1431C190.451 31.1511 193.362 31.1497 193.363 31.1497C193.485 31.1124 193.585 31.0218 193.703 30.9791Z" stroke="black" stroke-width="4.2163" stroke-linecap="round" stroke-linejoin="round"/>
<path d="M136.919 33.869C137.103 33.7891 141.989 33.8597 142.019 33.869C142.165 33.9237 142.209 34.145 142.189 34.5502C142.177 34.7355 142.192 35.9339 142.2 36.4831C142.199 37.1522 142.169 37.5241 142.019 37.9494C142.007 37.9934 141.757 39.7103 141.743 39.9142C141.723 40.2075 141.771 40.7154 141.837 40.954C141.908 41.1726 142.197 41.6138 142.387 41.7644C142.605 41.9297 143.114 42.075 143.56 42.1324C143.865 42.167 144.151 42.1737 144.194 42.1497C144.242 42.111 143.464 41.7778 142.976 41.6791C142.149 41.5178 139.457 41.5232 138.334 41.5698C137.099 41.6471 134.887 41.7791 133.909 41.8338C133.233 41.8604 132.756 41.8538 132.314 41.7391C132.01 41.6631 131.2 42.0257 130.629 42.399C130.435 42.5283 129.144 43.42 129.102 43.4147C129.068 43.3894 130.183 42.3683 130.488 42.0537C130.696 41.8338 130.999 41.3912 131.027 41.2392C131.044 41.1313 130.852 40.714 130.799 40.3301C130.739 39.9396 130.619 34.9154 130.617 34.8928C130.612 34.5915 130.684 34.4222 130.873 34.3836C130.909 34.3782 136.723 34.053 136.749 34.0397C136.82 34.0037 136.845 33.9024 136.919 33.869Z" stroke="black" stroke-width="4.2163" stroke-linecap="round" stroke-linejoin="round"/>
<path d="M189.283 34.209C189.343 34.1823 195.356 34.189 195.403 34.209C195.593 34.3023 195.572 34.9061 195.555 35.586C195.462 40.2475 195.243 49.4852 195.234 49.5105C195.168 49.6732 194.843 49.8251 194.554 49.8505C194.506 49.8545 188.337 49.9091 185.804 49.9265C184.829 49.9118 183.376 49.8718 183.332 49.8505C183.139 49.7505 183.09 49.5385 183.139 49.0773C183.216 48.4015 182.81 43.8906 182.697 41.0166C182.617 38.6919 182.474 34.9354 182.482 34.8901C182.517 34.7195 182.573 34.6062 182.653 34.5502C182.673 34.5369 189.082 34.3943 189.112 34.3796C189.186 34.3449 189.21 34.2423 189.283 34.209Z" stroke="black" stroke-width="4.2163" stroke-linecap="round" stroke-linejoin="round"/>
<path d="M157.491 51.2115C157.528 51.1928 161.379 51.1635 161.571 51.2115C161.802 51.2688 162.16 51.5354 162.251 51.5514C162.362 51.5741 162.482 51.5207 162.591 51.5514C162.628 51.5621 163.636 52.5605 163.781 52.9111C163.857 53.1097 163.879 53.4296 163.835 53.6576C163.395 55.8264 163.232 58.7137 163.24 59.3202C163.245 59.5961 163.371 60.1386 163.508 60.3279C163.604 60.4586 164.068 60.7398 164.121 60.9025C164.165 61.0464 164.048 61.3264 163.856 61.605C163.596 61.9635 163.031 62.3461 162.591 62.4314C162.291 62.4874 156.887 62.7513 154.963 62.8766C150.179 63.1965 143.228 63.6085 143.209 63.6218C143.197 63.6325 143.034 67.1263 143.061 67.5875C143.101 68.1873 143.272 68.7725 143.549 69.0631C143.723 69.2378 144.498 69.6603 144.878 69.7763C145.796 70.0469 148.166 70.1256 149.1 70.1362C151.26 70.1189 155.782 69.9682 158.136 69.8256C159.349 69.7216 163.781 69.3524 163.951 69.4031C164.152 69.4697 164.344 69.715 164.408 69.9896C164.466 70.2815 164.454 70.5041 164.366 70.7774C164.25 71.1066 164.12 71.3772 163.992 71.5092C163.825 71.6745 163.547 71.8131 163.315 71.8651C162.372 72.0691 161.115 72.249 159.562 72.4076C157.132 72.6129 152.68 72.7382 150.377 72.7436C149.343 72.7209 146.923 72.6369 146.212 72.5676C144.821 72.4277 142.938 71.9691 142.187 71.6185C141.795 71.4319 141.061 70.876 140.784 70.5254C140.528 70.1935 140.108 69.2511 139.979 68.7219C139.807 68.0007 139.63 65.6506 139.521 64.6402C139.493 64.3763 139.381 64.0417 139.239 63.8404C139.106 63.6538 138.789 63.6218 138.618 63.6218C138.569 63.6111 137.55 62.6927 137.429 62.4314C137.333 62.2088 137.326 61.7103 137.434 61.5316C137.562 61.3344 137.818 61.221 138.081 61.2117C138.124 61.2117 143.991 60.9038 146.488 60.8131C148.842 60.7372 153.437 60.5692 155.679 60.4772C156.87 60.4012 158.679 60.2093 159.021 60.2213C159.296 60.2293 159.773 60.3026 159.8 60.2946C159.956 60.244 160.061 60 160.078 59.7134C160.187 57.6752 160.221 54.3067 160.222 54.2721C160.229 53.9722 160.145 53.7989 159.942 53.7575C159.901 53.7495 146.959 54.2347 142.353 54.3894C142.048 54.4054 141.611 54.4267 141.191 54.5573C140.99 54.6173 140.716 54.6053 140.44 54.5213C140.1 54.4107 139.672 54.2308 139.469 54.1015C139.285 53.9802 138.921 53.6189 138.847 53.4709C138.765 53.2843 138.821 52.8751 138.959 52.6418C139.063 52.4765 139.526 51.9486 139.639 51.8913C139.82 51.802 140.22 51.886 140.319 51.8913C140.378 51.8953 140.875 51.738 140.999 51.7207C141.097 51.7074 144.215 51.722 145.387 51.7287C145.79 51.7287 146.419 51.5434 146.812 51.5434C147.982 51.5501 151.066 51.5647 151.2 51.5514C151.71 51.4661 152.264 51.3768 153.037 51.3715C154.264 51.3795 157.294 51.3928 157.32 51.3808C157.394 51.3488 157.418 51.2448 157.491 51.2115Z" stroke="black" stroke-width="4.2163" stroke-linecap="round" stroke-linejoin="round"/>
<path d="M232.637 57.1621C232.485 57.0728 231.578 56.5329 231.277 56.141C231.042 55.8291 230.684 54.8973 230.602 54.4241C230.572 54.2081 230.664 53.8695 230.806 53.7602C231.038 53.5963 233.776 53.5856 234.816 53.5869C236.06 53.5936 238.206 53.5989 239.108 53.5963C239.461 53.5976 240.484 53.4136 240.703 53.419C243.222 53.4656 245.979 53.419 248.322 53.3217C252.709 53.1217 262.311 52.6645 267.525 52.4099C269.5 52.3112 272.967 52.1366 274.46 52.0606C275.302 52.0207 275.789 52.0327 276.171 52.166C276.444 52.2699 276.642 52.4926 276.671 52.7418C276.687 52.9524 276.332 53.8589 276.038 54.4214C275.897 54.6827 275.682 54.9559 275.475 55.1319C275.141 55.4052 274.24 55.6344 273.777 55.6478C271.318 55.7224 259.225 55.8397 256.652 55.9624C256.477 55.973 256.227 55.9703 256.203 55.9783C256.091 56.025 256.1 56.9928 256.1 57.1861C256.113 59.4122 256.121 63.9018 256.116 66.1665C256.084 67.7795 255.956 69.4591 255.758 70.2149C255.664 70.5601 255.395 71.2733 255.192 71.5812C254.938 71.9584 254.417 72.321 254.095 72.5183C253.825 72.7449 253.815 73.2688 253.889 73.9926" stroke="black" stroke-width="4.2163" stroke-linecap="round" stroke-linejoin="round"/>
<path d="M232.636 57.162C236.855 56.9061 243.359 56.5555 245.644 56.4609C247.893 56.4742 250.931 56.4796 251.681 56.3716C252.208 56.2903 253.27 55.9863 253.815 55.6477C254.005 55.5278 254.349 55.2612 254.408 55.1932C254.472 55.1159 254.406 55.0785 254.267 55.1145C254.178 55.1399 253.601 55.3558 253.437 55.4371C253.117 55.6024 252.678 55.9917 252.498 56.2969C252.308 56.6315 252.161 57.0794 252.133 57.35C252.05 58.1978 251.917 60.0493 251.888 61.1571C251.86 66.2478 252.313 71.2386 252.314 71.2759C252.332 71.5478 252.474 71.8771 252.702 72.1157C252.909 72.3277 253.702 72.7049 253.889 72.8022" stroke="black" stroke-width="4.2163" stroke-linecap="round" stroke-linejoin="round"/>
<path d="M184.302 98.7266C185.256 98.5853 187.47 98.2494 188.209 98.0587C188.317 98.0281 188.841 97.8708 188.959 97.7841C189.146 97.6402 189.239 97.3749 189.228 97.111C189.186 96.1485 189.076 94.069 189.011 92.952C188.954 91.3004 189.001 89.2302 188.993 89.0036C188.979 88.6823 188.875 88.0692 188.874 87.6C188.893 81.6881 188.775 77.5051 188.73 76.4627C188.717 76.2601 188.651 75.235 188.467 74.8484C188.349 74.6151 188.102 74.4805 187.798 74.4565C187.198 74.4218 186.344 74.2645 186.18 74.2445C185.397 74.1512 183.405 74.2779 183.386 74.3112C183.321 74.4391 183.399 74.6004 183.386 74.7431C183.375 74.8924 183.262 75.2296 183.27 75.5042C183.271 75.5535 183.278 88.1065 183.271 88.1398C183.147 88.6104 183.161 89.5288 183.162 89.7541C183.198 92.2362 183.289 97.3856 183.353 97.7268C183.401 97.9508 183.65 98.2667 183.93 98.4719C184.051 98.5613 184.21 98.6079 184.302 98.7266ZM184.302 98.7266C184.334 98.7679 184.199 98.7839 184.187 98.8345C184.172 98.8852 184.186 99.0291 184.227 99.2664" stroke="black" stroke-width="2.75799" stroke-linecap="round" stroke-linejoin="round"/>
<path d="M133.274 85.4391C133.391 85.5884 133.581 85.8537 133.617 85.871C133.686 85.903 133.891 85.8777 134.139 85.9937C135.42 86.5655 137.004 87.5066 137.86 88.2478C138.197 88.5424 139.097 89.4075 139.223 89.5434C139.663 90.026 140.028 90.6552 140.139 91.0564C140.23 91.4003 140.374 92.7053 140.367 93.0013C140.351 93.4985 140.079 94.233 139.834 94.6075C139.538 95.0501 138.997 95.7726 138.766 96.0259C138.529 96.2818 137.784 96.9257 137.418 97.1109C136.726 97.4549 134.486 97.8841 133.503 97.9707C132.605 98.0467 127.405 97.8628 125.215 97.7734C122.802 97.6375 120.661 97.6535 120.353 97.5908C120.123 97.5402 119.927 97.3562 119.875 97.1723C119.771 96.7364 119.789 91.7469 119.801 89.4768C119.82 86.9428 119.863 82.4932 119.888 80.5776C119.956 78.2769 120.092 75.2243 120.117 75.175C120.125 75.159 123.282 74.4965 124.151 74.3472C125.516 74.1379 126.76 74.0966 128.015 74.1792C129.227 74.2645 130.401 74.4405 131.404 74.8097C131.813 74.963 132.763 75.4282 133.159 75.7162C133.439 75.9214 134.316 76.7559 134.532 77.0118C134.875 77.4251 135.364 78.3115 135.46 78.7594C135.544 79.1767 135.565 80.0018 135.545 80.6656C135.519 81.2535 135.264 82.1519 134.999 82.6598C134.764 83.0984 134.099 84.0661 133.809 84.4914C133.641 84.7273 133.571 85.0912 133.503 85.2232C133.473 85.2805 133.397 85.3525 133.274 85.4391Z" stroke="black" stroke-width="2.75799" stroke-linecap="round" stroke-linejoin="round"/>
<path d="M151.466 86.195C151.765 85.9977 151.945 85.7284 152.263 85.0432C152.745 83.9448 153.94 81.2842 154.097 81.0096C154.367 80.543 154.623 80.2138 154.882 79.9978C155.102 79.8205 155.612 79.6992 155.896 79.7445C156.811 79.8778 157.869 80.0538 158.589 80.0471C159.078 80.0431 159.374 80.1471 159.474 80.3617C159.552 80.5497 159.113 81.876 158.484 83.4636C156.687 87.8466 153.61 95.2967 153.525 95.486C153.153 96.2952 151.813 98.5146 151.466 98.9425C151.232 99.2264 150.456 99.9996 150.09 100.305C149.707 100.617 149.047 100.943 148.516 101.105C147.642 101.363 146.464 101.435 144.963 101.41C143.867 101.378 141.239 101.297 141.037 101.209C140.895 101.138 140.763 100.851 140.759 100.606C140.759 100.563 140.857 98.9639 140.871 98.5613C140.903 97.8841 141.037 97.4149 141.397 96.8897C141.588 96.6271 141.808 96.4858 142.084 96.4578C142.194 96.4498 143.766 96.7577 144.142 96.8244C144.779 96.935 145.244 96.9123 145.859 96.7817C146.327 96.6751 146.832 96.4178 147.135 96.1539C147.43 95.8873 147.99 95.0115 148.174 94.5996C148.486 93.8877 148.949 90.9658 148.949 90.9525C148.959 90.6565 148.43 89.9701 148.002 89.5648C147.821 89.3969 145.106 87.0428 144.711 86.6562C144.03 85.9844 142.718 84.2061 142.426 83.4943C142.3 83.177 142.157 82.2319 142.198 82.1973C142.237 82.168 144.503 81.7587 145.058 81.6761C145.295 81.6414 145.703 81.7481 145.859 81.7654C145.935 81.7761 146.117 81.78 146.32 81.984C146.349 82.0133 148.843 84.4247 149.421 84.9406C149.989 85.4431 150.788 85.999 151.238 86.1657C151.427 86.2323 151.505 86.3789 151.58 86.7348" stroke="black" stroke-width="2.75799" stroke-linecap="round" stroke-linejoin="round"/>
<path d="M126.066 79.0647C126.134 79.0661 128.259 79.3673 128.583 79.4966C128.855 79.6099 129.251 79.8898 129.404 80.0831C129.547 80.2738 129.675 80.6736 129.668 80.9083C129.643 81.3708 129.34 82.168 129.04 82.4132C128.72 82.6638 127.978 82.8891 127.233 83.0251C126.449 83.1517 125.797 83.2264 125.419 83.2184C125.236 83.2077 125.02 83.1037 124.975 82.9691C124.941 82.8584 124.872 81.6788 124.843 81.1949C124.807 80.4657 124.828 79.6339 124.921 79.4966C125.088 79.27 125.348 79.13 125.66 79.0994C125.796 79.0887 125.93 79.0661 126.066 79.0647Z" stroke="black" stroke-width="2.75799" stroke-linecap="round" stroke-linejoin="round"/>
<path d="M175.148 96.5658C173.944 97.191 172.689 97.7215 171.625 97.9321C170.992 98.0521 170.332 98.1441 169.879 98.1601C169.692 98.1654 169.593 98.2814 169.543 98.2947C169.505 98.3041 167.086 98.0641 166.11 97.8628C165.48 97.7042 164.858 97.3656 164.479 96.9631C164.121 96.5791 163.524 95.858 163.289 95.4594C162.822 94.6529 162.323 92.812 162.127 91.5137C161.928 90.1114 161.77 88.6864 161.717 87.6466C161.669 86.7575 161.522 84.1808 161.534 84.0342C161.554 83.8156 161.671 83.465 161.762 83.3864C161.886 83.289 165.258 83.2277 165.424 83.2784C165.605 83.3397 165.733 83.5583 165.766 83.8182C165.87 84.8033 166.058 89.2303 166.11 89.6515C166.218 90.4926 166.475 91.0911 166.682 91.3804C166.894 91.6683 167.48 92.1682 167.946 92.3388C168.218 92.4361 168.546 92.4801 168.799 92.4668C169.04 92.4495 169.232 92.5454 169.313 92.5694C169.355 92.5801 170.422 92.3735 170.845 92.2855C171.502 92.1415 172.231 91.8883 172.71 91.6257C173.164 91.3724 173.776 90.8885 173.943 90.6486C174.14 90.35 174.243 89.5729 174.276 88.8624C174.305 87.8839 174.32 85.4818 174.323 84.2488C174.339 82.6692 174.384 82.0013 174.525 81.6774C174.608 81.5055 174.812 81.3562 175.031 81.3335C175.287 81.3109 177.757 81.4575 177.913 81.5241C178.057 81.5895 178.138 81.8067 178.17 82.072C178.173 82.108 178.883 88.3345 179.111 90.526C179.266 92.3375 179.568 95.9926 179.585 96.2979C179.616 96.995 179.574 97.6322 179.403 97.8642C179.294 97.9988 179.022 98.1467 178.783 98.2014C178.302 98.304 177.513 98.2881 176.906 98.1961C176.205 98.0828 175.758 98.0121 175.72 97.8628C175.713 97.8348 175.662 97.1217 175.606 96.9977C175.542 96.8524 175.152 96.5884 175.148 96.5658ZM175.148 96.5658C175.129 96.4525 175.287 96.1326 175.268 95.81" stroke="black" stroke-width="2.75799" stroke-linecap="round" stroke-linejoin="round"/>
<path d="M278.691 96.7817C277.486 97.4069 276.23 97.9374 275.166 98.1481C274.533 98.268 273.873 98.36 273.42 98.376C273.235 98.3813 273.135 98.4973 273.084 98.5106C273.047 98.52 270.627 98.28 269.651 98.0787C269.021 97.9201 268.401 97.5815 268.02 97.179C267.663 96.7951 267.067 96.0739 266.831 95.6753C266.363 94.8689 265.864 93.0293 265.668 91.7296C265.47 90.3287 265.311 88.9023 265.258 87.8639C265.211 86.9735 265.065 84.3968 265.075 84.2501C265.095 84.0315 265.213 83.6809 265.305 83.6023C265.427 83.505 268.8 83.4437 268.965 83.4943C269.148 83.5556 269.274 83.7743 269.309 84.0342C269.412 85.0193 269.599 89.4462 269.651 89.8687C269.759 90.7085 270.017 91.3071 270.223 91.5963C270.435 91.8843 271.022 92.3841 271.487 92.5548C271.759 92.6521 272.088 92.6961 272.34 92.6827C272.583 92.6654 272.773 92.7614 272.855 92.7854C272.897 92.796 273.964 92.5894 274.386 92.5014C275.045 92.3575 275.774 92.1042 276.253 91.8416C276.706 91.5883 277.318 91.1045 277.484 90.8645C277.682 90.5659 277.784 89.7888 277.819 89.0783C277.847 88.0998 277.863 85.6978 277.864 84.4647C277.88 82.8851 277.925 82.2173 278.067 81.8934C278.151 81.7214 278.353 81.5721 278.572 81.5494C278.829 81.5268 281.298 81.6734 281.454 81.7401C281.598 81.8067 281.679 82.0227 281.711 82.2879C281.715 82.3239 282.424 88.5504 282.652 90.7419C282.807 92.5534 283.11 96.2085 283.127 96.5151C283.158 97.211 283.116 97.8481 282.944 98.0801C282.835 98.2147 282.564 98.3627 282.324 98.4173C281.844 98.52 281.055 98.504 280.448 98.412C279.746 98.2987 279.3 98.228 279.262 98.0787C279.256 98.0508 279.204 97.3376 279.148 97.215C279.084 97.0683 278.693 96.8057 278.691 96.7817ZM278.691 96.7817C278.672 96.6684 278.825 96.3485 278.792 96.0259" stroke="black" stroke-width="2.75799" stroke-linecap="round" stroke-linejoin="round"/>
<path d="M204.438 84.682C203.686 84.0528 201.797 82.4452 201.732 82.4199C201.459 82.3159 198.827 81.888 198.145 81.8734C197.564 81.8654 196.707 81.9987 196.261 82.148C195.849 82.2919 195.058 82.7345 194.688 83.0131C194.262 83.3423 193.707 83.9608 193.417 84.4687C193.154 84.9353 192.854 85.6951 192.776 86.0803C192.67 86.6189 192.533 89.7874 192.538 90.0847C192.544 90.2886 192.712 92.6401 192.749 93.7318C192.788 94.8089 193.125 96.6391 193.465 97.4642C193.571 97.7108 193.846 98.0721 194.025 98.1867C194.426 98.4293 196.504 98.3853 197.181 98.3387C197.477 98.316 197.9 98.2147 198.008 98.0934C198.145 97.9281 198.402 94.9702 198.482 94.2917C198.561 93.6532 198.723 92.7814 198.831 92.4615C199.014 91.9389 199.547 91.2764 199.747 91.1644C199.97 91.0458 200.427 90.9365 200.662 90.9485C201.024 90.9738 201.628 91.3417 201.808 91.6003C202.112 92.0535 202.654 94.321 202.756 95.1315C202.818 95.6554 203.014 98.1134 203.293 98.2947C203.36 98.3334 203.448 98.28 203.522 98.2947C203.605 98.308 203.798 98.4133 204.099 98.4067C204.261 98.4013 205.82 98.3547 206.039 98.2947C206.298 98.2161 206.448 98.0681 206.464 97.8588C206.476 97.6375 206.972 92.0162 207.077 91.7243C207.143 91.5577 207.436 91.2311 207.663 91.0378C207.937 90.8178 208.293 90.6339 208.533 90.6072C208.782 90.5846 209.144 90.6512 209.386 90.7592C209.675 90.8978 209.965 91.1298 210.158 91.3804C210.33 91.611 210.72 92.5561 210.838 93.0999C211.027 93.9944 211.28 97.2323 211.282 97.3189C211.287 97.5935 211.396 97.9601 211.531 98.0787C211.612 98.1454 214.59 98.0987 215.426 97.9054C215.534 97.8788 216.059 97.7095 216.107 97.6468C216.206 97.5069 216.102 97.1043 216.107 96.9977C216.112 96.8497 216.234 96.5071 216.227 96.2232C216.227 96.1832 216.238 92.9627 216.235 91.7243C216.227 90.6966 216.094 90.0141 216.064 88.2571C216.058 87.8732 215.987 86.5856 215.879 86.155C215.843 86.011 215.655 85.6338 215.65 85.5471C215.639 85.4032 215.642 85.0553 215.525 84.7913C215.227 84.0982 214.787 83.393 214.416 83.0784C214.101 82.8211 213.189 82.3173 212.904 82.1973C212.445 82.0093 211.67 81.86 211.074 81.8734C210.775 81.8827 209.565 82.0213 209.048 82.108C208.452 82.2119 207.472 82.4772 207.044 82.6825C206.609 82.8958 206.002 83.3877 205.642 83.8182C205.472 84.0195 205.222 84.3034 205.125 84.3581C204.993 84.4341 204.477 84.6074 204.438 84.682ZM204.438 84.682C204.377 84.8007 204.369 85.2939 204.385 85.6551" stroke="black" stroke-width="2.75799" stroke-linecap="round" stroke-linejoin="round"/>
<path d="M226.175 98.8345C224.928 98.6906 223.717 98.4413 222.972 98.0787C222.572 97.8801 221.755 97.3136 221.37 96.8897C221.165 96.6604 220.523 95.7246 220.313 95.3167C220.066 94.8342 219.744 93.8784 219.616 93.2932C219.508 92.7827 219.36 91.6443 219.328 91.1151C219.298 90.5899 219.357 89.5915 219.448 89.1102C219.634 88.1478 220.307 86.3496 220.683 85.6551C220.967 85.1392 221.54 84.3994 221.943 84.0208C222.411 83.5863 223.2 82.9371 223.629 82.6825C224.112 82.4026 224.958 82.092 225.41 82.0066C225.878 81.9227 226.718 81.8427 227.228 81.8494C228.12 81.868 230.792 82.3492 231.438 82.5212C232.099 82.7012 232.755 83.0171 233.268 83.3863C233.379 83.4663 234.495 84.3807 234.648 84.522C235.004 84.8553 235.592 85.6604 235.788 86.1456C235.972 86.6122 236.114 87.4813 236.204 88.2438C236.261 88.7837 236.237 90.0167 236.237 90.0594C236.228 90.4766 236.358 91.2137 236.473 91.4883C236.53 91.6203 239.555 94.7169 239.561 94.7302C239.627 94.8635 239.777 95.4447 239.791 95.594C239.797 95.7207 239.628 96.3205 239.561 96.4578C239.425 96.7244 238.692 97.3589 238.398 97.5682C238.212 97.6948 237.898 97.8255 237.573 97.9121C237.297 97.9828 236.857 97.8868 236.701 97.8628C236.587 97.8428 236.117 97.7441 235.786 97.5389C235.602 97.4216 234.556 96.4178 234.279 96.1739C234.081 96.0046 233.698 95.75 233.532 95.694C233.311 95.6247 232.552 96.0779 232.122 96.4205C231.57 96.871 230.83 97.4469 230.494 97.6602C229.175 98.4853 226.507 98.7985 226.175 98.8345Z" stroke="black" stroke-width="2.75799" stroke-linecap="round" stroke-linejoin="round"/>
<path d="M248.601 86.087C248.694 85.6298 248.854 84.8606 248.829 84.79C248.785 84.666 248.655 84.5874 248.601 84.4661C248.565 84.3888 248.641 83.0024 248.499 82.4785C248.214 81.4681 247.404 80.1858 247.226 80.0271C246.924 79.7619 245.944 79.5166 245.309 79.4833C244.73 79.4566 243.657 79.5166 243.003 79.6152C242.743 79.6619 242.364 79.8832 242.309 80.0645C242.285 80.1551 242.613 81.3215 242.698 82.0253C242.814 82.7865 242.993 84.1182 242.998 85.4298C242.947 89.7434 242.825 95.9606 242.751 97.8641C242.746 98.1321 242.883 98.3413 243.109 98.4026C243.383 98.468 248.341 98.0921 248.371 98.0787C248.489 98.0201 248.486 97.4722 248.506 96.6324C248.557 94.9195 248.737 92.776 249.007 92.1468C249.265 91.563 250.544 90.0993 251.208 89.6341C251.909 89.1502 254.038 88.2185 254.583 88.1625C254.725 88.1492 255.878 87.9839 256.106 88.0105C256.507 88.0625 257.359 88.5077 257.817 88.825C258.941 89.6088 259.427 89.7514 259.583 89.7594" stroke="black" stroke-width="2.75799" stroke-linecap="round" stroke-linejoin="round"/>
<path d="M227.319 88.2478C227.719 88.2358 228.484 88.3278 228.805 88.4997C229.095 88.661 229.808 89.2635 229.951 89.5435C230.077 89.8074 230.046 90.9311 229.965 91.431C229.916 91.7069 229.757 92.1255 229.628 92.3161C229.385 92.6574 228.612 93.0426 228.018 93.1812C227.432 93.3092 226.589 93.3399 226.271 93.2026C225.938 93.0479 225.296 92.2441 225.146 91.9202C224.982 91.5563 224.853 90.4899 224.917 90.1926C225.005 89.8074 225.505 89.1636 225.949 88.7503C226.127 88.585 226.335 88.605 226.405 88.5717C226.499 88.529 226.703 88.3064 226.909 88.2824C227.051 88.2651 227.189 88.2531 227.319 88.2478Z" stroke="black" stroke-width="2.75799" stroke-linecap="round" stroke-linejoin="round"/>
<path d="M126.067 93.6492C127.05 93.5839 129.83 93.3799 130.184 93.3253C130.609 93.2559 130.979 93.1479 131.107 93.0373C131.347 92.8187 131.803 91.7989 131.787 91.7043C131.775 91.6536 131.683 91.6483 131.672 91.5963C131.64 91.4564 131.701 91.3058 131.672 91.1645C131.657 91.1018 131.257 90.7019 131.147 90.6032C130.753 90.2633 129.735 89.8381 129.159 89.6821C128.693 89.5582 127.658 89.3595 127.048 89.2676C126.399 89.1742 125.329 89.2822 125.265 89.4355C125.249 89.4795 125.1 92.9427 125.151 93.1093C125.2 93.2546 125.347 93.3492 125.608 93.4332C125.973 93.5452 126.133 93.7251 126.12 93.9731" stroke="black" stroke-width="2.75799" stroke-linecap="round" stroke-linejoin="round"/>
<path d="M259.698 90.6245C259.626 90.2993 259.557 89.8687 259.583 89.7594C259.606 89.6741 260.105 89.5661 260.155 89.5435C260.527 89.3862 261.925 87.8905 262.1 87.5466C262.188 87.3587 262.215 87.0388 262.14 86.8601C261.979 86.4989 261.224 85.7417 260.955 85.5005C260.475 85.0726 259.598 84.3807 259.13 84.0888C258.625 83.7795 257.606 83.349 257.047 83.2383C256.477 83.1304 254.103 83.1744 253.186 83.3543C253.037 83.385 252.641 83.3663 252.49 83.3863C252.436 83.393 248.966 84.7593 248.829 84.79" stroke="black" stroke-width="2.75799" stroke-linecap="round" stroke-linejoin="round"/>
<path d="M40.0487 83.417C39.4235 83.9848 37.9612 85.3378 37.288 86.051C36.3136 87.1201 35.2832 88.4664 34.814 89.4008C34.494 90.0487 34.2208 90.9325 34.2861 91.3724C34.3261 91.5976 34.4874 91.9482 34.63 92.1229C34.9126 92.4534 35.7191 92.9453 36.3309 93.1893C36.8508 93.3919 37.8906 93.6638 38.4318 93.7211C39.3022 93.8064 42.0042 93.5398 42.5707 93.4585C45.2394 93.0506 48.2067 92.3855 50.2222 91.8829C52.1191 91.3537 56.0315 90.1513 57.9497 89.5088C59.8985 88.8276 63.6203 87.432 65.4918 86.7122C67.3087 85.967 70.9558 84.4287 72.786 83.6369C74.6296 82.7971 78.2914 81.0842 80.1109 80.2124C81.9171 79.3073 85.4896 77.4704 87.2532 76.54C89.0087 75.5709 92.5425 73.5687 94.3208 72.5356C96.1203 71.4253 99.6408 69.2085 101.435 68.0034C103.596 66.4998 107.086 63.8524 108.044 63.0486C108.803 62.3954 110.494 60.8518 110.898 60.4279C111.218 60.0933 113.256 57.8259 113.495 57.4833C113.749 57.1061 114.004 56.2396 114.079 55.6251C114.159 54.9119 114.115 53.9508 113.887 53.5349C113.767 53.327 113.488 53.035 113.3 52.9124C112.938 52.6858 112.108 52.4392 111.463 52.3606C110.298 52.2259 108.311 52.2206 107.268 52.3272C106.795 52.3766 104.569 52.6965 103.328 52.9258C100.94 53.427 98.997 53.9295 98.673 54.0148" stroke="black" stroke-width="2.03684" stroke-linecap="round" stroke-linejoin="round"/>
<path d="M39.3836 80.6337C38.729 81.2388 37.2947 82.5772 36.6602 83.201C35.9257 83.9502 34.9713 85.0139 34.1062 86.0723C33.4343 86.9161 31.9614 88.8876 31.5761 89.5248C31.0109 90.4606 30.1578 92.2961 29.9232 93.0999C29.7979 93.5371 29.5819 94.7049 29.5406 95.1701C29.4966 95.7273 29.6419 96.7484 29.8339 97.2189C29.9699 97.5429 30.5257 98.3693 30.859 98.7385C31.1882 99.0985 31.988 99.805 32.3879 100.092C32.8358 100.41 33.581 100.813 34.0808 101.007C34.8553 101.305 37.0241 101.695 37.8893 101.776C38.6277 101.844 41.0791 101.899 42.0962 101.894C43.7785 101.867 47.211 101.478 49.737 101.077C51.2593 100.811 55.6036 99.8423 57.3885 99.3851C59.3813 98.8319 63.375 97.6042 65.4532 96.911C67.4167 96.1992 71.2184 94.7848 73.0873 94.037C74.8682 93.2785 78.474 91.6976 80.2989 90.8725C82.0158 90.058 85.7269 88.1838 87.5785 87.2227C89.522 86.1776 93.1678 84.0901 94.9513 83.041C96.6616 81.988 99.9968 79.8272 101.616 78.7248C103.328 77.5051 106.49 75.1443 108.121 73.8433C109.849 72.393 112.88 69.6123 113.932 68.5553C114.782 67.6781 115.672 66.6557 116.618 65.4867C117.514 64.3496 118.606 62.7993 119.065 61.9849C119.648 60.9491 120.461 58.9896 120.629 58.1005C120.726 57.5713 120.809 56.4556 120.776 55.9917C120.736 55.4905 120.464 54.5347 120.233 54.1321C119.992 53.7229 119.405 53.0084 119.023 52.6551C118.648 52.3139 117.786 51.7047 117.373 51.4874C116.605 51.0902 114.704 50.5597 113.551 50.3704C112.55 50.2091 110.745 50.1038 109.268 50.0971C106.806 50.1131 104.496 50.3304 101.368 50.8169C98.2372 51.3381 97.0068 51.6301 96.7562 51.6887" stroke="black" stroke-width="2.03684" stroke-linecap="round" stroke-linejoin="round"/>
<path d="M43.5746 89.2675C42.9254 88.1185 42.3269 86.9468 41.9377 85.9524C41.4698 84.7033 40.9899 83.1957 40.7286 82.2666C40.57 81.6707 40.0315 78.9687 39.9488 78.3382C39.8488 77.5397 39.6929 75.6962 39.6609 74.3098C39.6662 72.9195 39.7875 71.0693 39.8728 70.2629C39.9462 69.6217 40.466 66.7704 40.6273 66.1359C40.8953 65.1068 41.3978 63.5072 41.8737 62.2475C42.3962 60.9598 42.8841 59.8987 43.5093 58.6937C44.1571 57.5246 45.0342 56.1476 45.6101 55.3038C46.198 54.4814 47.483 52.9097 48.1495 52.1539C48.5707 51.69 50.5236 49.8038 50.9728 49.4199C51.4194 49.04 53.6335 47.3644 54.16 47.0218C54.6932 46.6766 56.806 45.4209 57.6578 44.981C58.5403 44.5291 60.5678 43.7813 61.5742 43.4294C62.6593 43.0708 64.8841 42.4257 65.7865 42.2417C66.6503 42.0684 69.2043 41.7631 69.7709 41.7258C70.3454 41.6885 72.6822 41.6658 73.6393 41.6965C74.6044 41.7458 76.4492 41.9604 77.6956 42.1617C78.95 42.391 80.5003 42.7869 81.6853 43.1388C83.073 43.5934 84.1594 44.0106 85.4964 44.6038C86.4348 45.0423 88.0504 45.8928 89.1461 46.57C90.2245 47.2685 91.7562 48.3642 92.5227 48.9907C93.2638 49.6225 94.9954 51.2275 95.374 51.6234C95.9458 52.2206 97.4268 54.0002 98.0466 54.804C98.4172 55.2998 99.5689 57.0567 100.15 58.0431C100.618 58.8789 101.663 61.0558 101.923 61.6796C102.39 62.8313 102.768 64.0337 103.205 65.5413" stroke="black" stroke-width="2.03684" stroke-linecap="round" stroke-linejoin="round"/>
<path d="M104.097 78.1356C104.094 78.1583 103.693 80.4724 103.568 81.0669C103.335 82.1693 102.801 83.9968 102.412 85.0805C101.755 86.8281 100.634 88.9969 100.493 89.2675" stroke="black" stroke-width="2.03684" stroke-linecap="round" stroke-linejoin="round"/>
<path d="M7.24072 90.242C11.0345 90.242 20.1109 90.242 25.3923 90.242C27.2078 90.242 29.5353 90.242 30.0472 90.242" stroke="black" stroke-width="2.03684" stroke-linecap="round" stroke-linejoin="round"/>
<path d="M35.4873 90.242C39.5223 90.242 48.1575 90.242 52.7591 90.242C53.115 90.242 53.6296 90.242 53.7895 90.242" stroke="black" stroke-width="2.03684" stroke-linecap="round" stroke-linejoin="round"/>
<path d="M83.5808 90.242C87.4319 90.242 96.3524 90.242 101.422 90.242C102.298 90.242 103.876 90.242 104.577 90.242" stroke="black" stroke-width="2.03684" stroke-linecap="round" stroke-linejoin="round"/>
<path d="M13.8204 89.2622C13.4752 88.0132 13.1753 86.219 13.1246 85.2565C13.0726 84.2035 13.2072 82.164 13.3739 81.2482C13.5698 80.1831 14.1257 78.3315 14.4776 77.5037C14.8908 76.54 15.8066 74.9057 16.3092 74.1966C16.8997 73.3674 18.1247 71.9811 18.7539 71.4026C19.495 70.7254 20.996 69.6177 21.7345 69.1831C22.605 68.6726 24.3725 67.8794 25.211 67.6062C26.2014 67.2849 28.2223 66.8784 29.1527 66.797C30.2164 66.7091 32.0906 66.7677 32.8491 66.8597C33.6209 66.9557 35.5538 67.3782 36.4576 67.6942C37.1961 67.9541 38.9316 68.7726 39.0836 68.8552" stroke="black" stroke-width="2.03684" stroke-linecap="round" stroke-linejoin="round"/>
<path d="M44.8436 93.1106L44.8076 93.1386" stroke="black" stroke-width="2.03684" stroke-linecap="round" stroke-linejoin="round"/>
<path d="M33.6329 100.873L33.2983 100.886" stroke="black" stroke-width="2.03684" stroke-linecap="round" stroke-linejoin="round"/>
<path d="M19.987 69.1591C19.7004 68.6099 18.7686 66.3425 18.514 65.536C18.2821 64.7935 17.8315 62.8886 17.6849 61.9249C17.5356 60.9291 17.413 59.0176 17.4116 58.1831C17.4116 57.3247 17.5836 55.2732 17.7235 54.432C17.8795 53.5056 18.2941 51.7607 18.61 50.7863C18.9299 49.8118 19.6284 48.1563 20.0536 47.3085C20.4376 46.546 21.5093 44.7944 22.0185 44.0986C22.5904 43.3228 23.7674 41.9271 24.5032 41.1913C25.239 40.4568 26.6507 39.2651 27.4238 38.6985C28.1303 38.1827 29.9299 37.0896 30.695 36.7044C31.5322 36.2871 33.1638 35.6073 34.1489 35.2874C35.2499 34.9408 37.0388 34.5169 37.9999 34.3729C38.8011 34.2556 40.9845 34.0917 41.9936 34.1063C42.8161 34.121 45.0462 34.3356 45.722 34.4582C46.5405 34.6075 48.3401 35.0234 48.9679 35.2367C49.4945 35.4154 52.1085 36.5137 52.731 36.8203C53.6228 37.2629 55.2237 38.2547 56.0035 38.8425C57.1286 39.693 59.5333 42.0004 60.2318 42.8695" stroke="black" stroke-width="2.03684" stroke-linecap="round" stroke-linejoin="round"/>
<path d="M40.0888 82.6892L39.0344 83.0971" stroke="black" stroke-width="2.03684" stroke-linecap="round" stroke-linejoin="round"/>
<path d="M36.8283 83.0344L36.7976 83.0451" stroke="black" stroke-width="2.03684" stroke-linecap="round" stroke-linejoin="round"/>
<path d="M13.1102 80.3884C12.449 80.0311 10.5561 79.0101 9.84161 78.4862C8.96849 77.841 7.52218 76.3014 6.889 75.4083C6.27315 74.5311 5.25074 72.7009 4.87216 71.7745C4.49759 70.8467 3.97371 68.9205 3.78176 67.9168C3.61514 67.037 3.41518 65.0468 3.37386 63.8724C3.35653 62.85 3.38853 60.8772 3.48717 59.8281C3.57781 58.951 4.02304 56.3236 4.12834 55.8291C4.23232 55.3518 4.85483 52.9751 5.13343 52.1966C5.4187 51.3981 6.30381 49.4173 6.7717 48.4535C8.09004 45.8568 9.05914 44.5171 9.91893 43.4667" stroke="black" stroke-width="2.03684" stroke-linecap="round" stroke-linejoin="round"/>
<path d="M9.93071 43.588L9.87073 43.5827C9.85873 43.704 9.94804 46.2154 9.99203 47.3751C10.0227 48.015 10.1027 48.6961 10.2013 49.0107C10.3453 49.4506 10.6972 50.1691 10.7092 50.2424" stroke="black" stroke-width="2.03684" stroke-linecap="round" stroke-linejoin="round"/>
<path d="M11.0413 50.485C11.2026 50.3237 11.6265 49.8852 11.6758 49.8385C11.937 49.5986 12.2663 49.4573 12.4383 49.5186C12.6835 49.6252 12.9035 50.2784 13.1474 51.2768C13.5233 52.7618 14.6137 56.5102 14.8643 57.2274C15.047 57.7326 15.4389 58.4884 15.7308 58.8857C15.9907 59.2336 16.8678 60.1734 16.9238 60.2053C16.9851 60.24 17.1451 60.308 17.401 60.4066" stroke="black" stroke-width="2.03684" stroke-linecap="round" stroke-linejoin="round"/>
<path d="M12.7702 79.5526C12.193 79.006 11.1599 77.6997 10.704 76.8026C10.4801 76.3574 10.1162 75.3869 9.98287 74.879C9.85357 74.3712 9.70028 73.3074 9.68295 72.7835C9.66828 72.257 9.7456 71.2239 9.83758 70.7227C10.0242 69.7283 10.7187 68.0354 11.2052 67.2609C11.5958 66.6477 12.5942 65.5147 13.1754 65.0334C14.5084 63.939 16.332 63.2899 16.9079 63.1246" stroke="black" stroke-width="2.03684" stroke-linecap="round" stroke-linejoin="round"/>
<path d="M18.1235 66.2892C17.8929 66.3598 17.557 66.4944 17.441 66.5971C17.249 66.7717 16.9211 67.8328 16.8705 68.1434C16.8051 68.5579 16.8078 69.3084 16.8771 69.711C16.9544 70.1189 17.3823 70.8054 17.6409 70.9387C17.7049 70.972 17.8516 71.0213 18.0808 71.088" stroke="black" stroke-width="1.69692" stroke-linecap="round" stroke-linejoin="round"/>
<path d="M10.3254 69.707C10.616 69.667 11.0573 69.6283 11.2505 69.6523C11.4678 69.6817 11.9424 69.8989 12.1437 70.0496C12.5236 70.3455 13.0594 71.1253 13.2341 71.5772C13.3967 72.0104 13.5313 72.9982 13.462 73.4527C13.4247 73.6793 13.2381 74.1979 13.1301 74.3738C12.9061 74.7257 12.2023 75.1403 11.7877 75.203C11.3958 75.2563 10.9186 75.2016 10.5534 75.139" stroke="black" stroke-width="1.69692" stroke-linecap="round" stroke-linejoin="round"/>
<path d="M8.4351 53.3376C8.33645 53.6669 8.04186 54.656 7.95655 54.9839C7.71794 55.8983 7.44067 57.8912 7.44067 58.5763C7.44201 58.9962 7.51799 59.7361 7.60597 60.2013C7.70061 60.6852 7.95122 61.4623 8.16183 61.8702C8.36845 62.2635 8.69903 62.694 9.06694 63.1379" stroke="black" stroke-width="1.69692" stroke-linecap="round" stroke-linejoin="round"/>
<path d="M96.631 32.6627C96.4724 32.7453 96.1365 32.872 95.9592 32.9173C95.6352 32.996 94.9168 33.0066 94.5595 32.9226C94.1663 32.8267 93.4291 32.4228 93.1412 32.1335C92.7866 31.7696 92.4067 30.9978 92.3187 30.5885C92.2374 30.1686 92.3334 29.2142 92.5507 28.745C92.7759 28.2798 93.4384 27.6119 93.7984 27.4133C94.1543 27.2254 94.9674 27.0161 95.454 27.0454C95.9178 27.0801 96.799 27.436 97.1562 27.7292C97.5308 28.0478 98.0373 28.8716 98.1533 29.3542C98.2493 29.7727 98.196 30.5779 98.076 30.9631C97.8774 31.5683 97.2029 32.2935 96.9469 32.4721C96.8416 32.5427 96.7363 32.6067 96.631 32.6627Z" stroke="black" stroke-width="1.69692" stroke-linecap="round" stroke-linejoin="round"/>
<path d="M99.1864 34.3076C98.7665 34.6542 98.4399 34.8928 98.1587 35.0541C97.8494 35.2274 96.879 35.602 96.5884 35.6673C96.3244 35.7259 95.61 35.8086 95.2194 35.8033C94.7955 35.7953 94.013 35.6713 93.6291 35.5553C93.2519 35.4393 92.5187 35.0981 92.2055 34.8981C91.5883 34.4996 90.6138 33.4491 90.2739 32.8413C89.9567 32.2668 89.6061 31.0431 89.5634 30.4219C89.5234 29.7767 89.7487 28.3904 90.0833 27.6532C90.1366 27.5373 90.1913 27.4213 90.2446 27.3053" stroke="black" stroke-width="1.69692" stroke-linecap="round" stroke-linejoin="round"/>
<path d="M92.1775 25.3098C93.6051 24.3341 97.0763 21.9613 99.1198 20.563C102.632 18.1609 109.399 13.5354 112.652 11.3106" stroke="black" stroke-width="1.69692" stroke-linecap="round" stroke-linejoin="round"/>
<path d="M99.1797 34.3089L107.123 28.8783" stroke="black" stroke-width="1.69692" stroke-linecap="round" stroke-linejoin="round"/>
<path d="M97.2775 21.7533C97.2815 21.7493 97.2682 21.76 97.2628 21.7627C97.1535 21.8373 97.0442 21.912 96.9362 21.9866C95.1047 23.2383 93.1278 24.59 92.9812 24.69" stroke="black" stroke-width="1.69692" stroke-linecap="round" stroke-linejoin="round"/>
<path d="M101.826 22.028L111.693 15.2816C111.646 15.3136 111.599 15.3456 111.553 15.3776C111.539 15.3869 111.527 15.3949 111.514 15.4042" stroke="black" stroke-width="1.69692" stroke-linecap="round" stroke-linejoin="round"/>
<path d="M100.538 26.4082L100.45 26.4682C103.709 24.2394 110.646 19.4966 114.324 16.9812C117.619 14.7297 122.285 11.5385 123.658 10.6001" stroke="black" stroke-width="1.69692" stroke-linecap="round" stroke-linejoin="round"/>
<path d="M107.891 24.654L107.806 24.7126C108.621 24.1541 110.156 23.105 110.874 22.6145C110.877 22.6131 110.886 22.6065 110.884 22.6078" stroke="black" stroke-width="1.69692" stroke-linecap="round" stroke-linejoin="round"/>
<path d="M115.358 19.9604L115.262 20.0258L122.25 15.2483" stroke="black" stroke-width="1.69692" stroke-linecap="round" stroke-linejoin="round"/>
<path d="M54.0334 30.3713C54.2574 29.5728 54.8852 27.42 55.1572 26.7801C55.3825 26.2549 55.8743 25.3658 56.1343 25.0272C56.4209 24.6607 57.1087 24.0621 57.4659 23.8129C57.8405 23.5556 58.2924 23.3596 58.795 23.1837" stroke="black" stroke-width="1.69692" stroke-linecap="round" stroke-linejoin="round"/>
<path d="M54.0334 16.0401C54.2574 16.8159 54.8972 18.9767 55.1572 19.5886C55.3811 20.1098 55.8743 21.0015 56.1343 21.3401C56.4209 21.7067 57.1087 22.3052 57.4659 22.5545C57.8405 22.8118 58.2924 23.0064 58.795 23.1837" stroke="black" stroke-width="1.69692" stroke-linecap="round" stroke-linejoin="round"/>
<path d="M54.0481 15.8774C53.7041 17.2464 53.2789 18.7674 52.9323 19.5859C52.7031 20.1191 52.2152 20.9989 51.9539 21.3401C51.6686 21.7067 50.9795 22.3052 50.6236 22.5545C50.249 22.8118 49.7971 23.0064 49.2932 23.1837" stroke="black" stroke-width="1.69692" stroke-linecap="round" stroke-linejoin="round"/>
<path d="M54.0481 30.4899C53.7041 29.1209 53.2789 27.5999 52.9323 26.7815C52.7031 26.2483 52.2152 25.3685 51.9539 25.0272C51.6686 24.6607 50.9795 24.0621 50.6236 23.8129C50.249 23.5556 49.7971 23.3596 49.2932 23.1837" stroke="black" stroke-width="1.69692" stroke-linecap="round" stroke-linejoin="round"/>
<path d="M68.0659 33.4319H72.1249" stroke="black" stroke-width="2.03684" stroke-linecap="round" stroke-linejoin="round"/>
<path d="M70.1309 35.4967V31.4377" stroke="black" stroke-width="2.03684" stroke-linecap="round" stroke-linejoin="round"/>
<path d="M4.40674 78.2769L4.42407 88.3558" stroke="black" stroke-width="2.03684" stroke-linecap="round" stroke-linejoin="round"/>
<path d="M7.74867 81.6187H1.01831" stroke="black" stroke-width="2.03684" stroke-linecap="round" stroke-linejoin="round"/>
<path d="M95.7578 45.3103H99.8168" stroke="black" stroke-width="2.03684" stroke-linecap="round" stroke-linejoin="round"/>
<path d="M97.8228 47.3751V43.3161" stroke="black" stroke-width="2.03684" stroke-linecap="round" stroke-linejoin="round"/>
<path d="M16.6504 44.9704C16.6064 44.985 16.4731 44.9917 16.4371 44.9917C16.1678 44.981 15.7519 44.6211 15.7026 44.3572C15.6666 44.1426 15.8173 43.7306 16.0079 43.5854C16.1838 43.4574 16.6291 43.4227 16.833 43.5267C17.0743 43.6547 17.2942 44.1772 17.2116 44.4451C17.1783 44.5464 17.0809 44.6998 17.0103 44.7717C16.945 44.8371 16.7917 44.9224 16.6504 44.9704Z" stroke="black" stroke-width="2.03684" stroke-linecap="round" stroke-linejoin="round"/>
<path d="M108.184 86.1523C108.112 86.1803 107.976 86.2123 107.904 86.2203C107.654 86.2403 107.204 86.0457 107.048 85.8577C106.892 85.6658 106.795 85.1526 106.886 84.8966C106.987 84.622 107.462 84.2634 107.773 84.2448C108.019 84.2328 108.483 84.4567 108.635 84.6753C108.971 85.1712 108.644 85.7844 108.579 85.8657C108.547 85.903 108.468 85.9803 108.42 86.019C108.369 86.0577 108.245 86.1283 108.184 86.1523Z" stroke="black" stroke-width="2.03684" stroke-linecap="round" stroke-linejoin="round"/>
<path d="M75.3376 41.9724C75.7055 45.5369 75.9388 48.4482 75.7309 50.4704C75.6229 51.4915 75.191 53.4763 74.8857 54.4987C74.6165 55.3878 73.9113 57.2207 73.4048 58.3858C72.7862 59.7094 72.0104 61.1931 71.3893 62.2355C70.912 63.0233 69.543 64.8908 68.8459 65.7266C68.1394 66.5518 66.3998 68.4593 66.0386 68.8165C65.6293 69.2204 63.4805 71.112 62.9766 71.5065C62.2875 72.0424 60.4133 73.3221 59.5161 73.854C58.6177 74.3672 56.6862 75.3976 55.6904 75.8948C54.7227 76.3534 52.8231 77.1812 51.8047 77.5531C50.757 77.9263 48.8374 78.4569 47.8283 78.6595C45.8302 79.0567 41.9404 79.2647 40.3928 79.3353" stroke="black" stroke-width="2.03684" stroke-linecap="round" stroke-linejoin="round"/>
<path d="M89.2687 47.5044C89.0808 49.3466 88.6036 53.8535 88.0824 55.833C87.8038 56.8821 87.1533 58.727 86.7307 59.6747C86.3135 60.5852 85.2537 62.6073 84.8258 63.3098C84.2993 64.1523 83.1476 65.8532 82.5211 66.7144C81.8719 67.5661 80.5322 69.1991 79.8404 69.9789C79.4205 70.4414 77.6356 72.1584 76.8611 72.8449C76.0693 73.5127 74.4817 74.7737 73.6992 75.3643C72.5941 76.1641 71.1438 77.0945 70.2187 77.6504C69.2963 78.1742 67.4487 79.1367 66.5183 79.5859C65.6012 80.0084 63.7163 80.7683 62.7699 81.1202C61.4795 81.5747 59.9826 82.0253 58.8255 82.3079C57.1419 82.7038 52.7936 83.2237 51.302 83.3903" stroke="black" stroke-width="2.03684" stroke-linecap="round" stroke-linejoin="round"/>
<path d="M66.1505 42.8895C66.2478 43.732 66.5064 46.0421 66.5757 46.9499C66.6504 48.0309 66.6251 49.8971 66.5291 51.1115C66.4344 52.1299 66.1492 54.0828 65.9732 55.0932C65.7746 56.0916 65.344 57.9632 65.0001 59.0442C64.7308 59.8867 63.9297 61.9609 63.5285 62.8073C63.0366 63.8257 62.1675 65.3974 61.5929 66.2238C60.7891 67.3742 58.5404 69.771 58.3164 70.0109" stroke="black" stroke-width="2.03684" stroke-linecap="round" stroke-linejoin="round"/>
<path d="M14.8283 89.0703C14.6723 87.2894 14.599 85.975 14.8443 84.9126C15.0696 83.9715 15.9267 82.16 16.4665 81.4242C17.0264 80.671 18.3954 79.4486 19.2885 78.8088C20.3483 78.053 24.3766 75.8695 26.1202 74.943C26.972 74.4738 28.7582 73.4114 29.5594 72.8422C30.0086 72.5223 30.7871 71.8518 31.1123 71.5079C31.4949 71.0973 32.1294 70.2389 32.4613 69.687C33.1865 68.474 33.4144 67.6835 33.5224 66.9583" stroke="black" stroke-width="2.03684" stroke-linecap="round" stroke-linejoin="round"/>
<path d="M28.5357 88.917C28.3637 88.5917 27.8025 87.5386 27.6785 87.2587C27.4479 86.7362 27.2293 85.7671 27.236 85.2885C27.2467 84.8766 27.4666 83.8969 27.6212 83.4943C27.9118 82.7531 29.1489 80.9722 29.7527 80.2937C30.0993 79.9085 31.9108 78.0743 32.6613 77.3198C33.5118 76.432 34.7968 74.963 35.1634 74.3939C35.4127 74.0033 35.8419 73.1582 36.0272 72.6996C36.2271 72.1997 36.4751 71.2666 36.5111 70.8827C36.5777 70.1002 36.2151 68.3647 36.1178 68.0941" stroke="black" stroke-width="2.03684" stroke-linecap="round" stroke-linejoin="round"/>
<path d="M24.2288 56.8448C24.4287 56.8461 24.8793 56.7141 25.0925 56.5928C25.2472 56.5035 26.4442 55.8157 26.8961 55.6837C27.4133 55.5371 29.918 55.4158 30.5685 55.4225C31.5656 55.4438 33.5611 55.5304 34.5596 55.5811C35.722 55.6331 37.3562 55.5864 38.3493 55.4118C38.9372 55.3025 39.6903 55.0399 40.0676 54.7786C40.4341 54.516 41.006 53.8442 41.3552 53.3083C41.6685 52.8218 42.0524 52.1099 42.2364 51.6314C42.423 51.1448 42.7136 50.6316 43.0095 50.3517C43.8573 49.5546 44.8264 48.7454 45.7315 48.2069C46.4873 47.767 48.3255 46.6859 48.8228 46.3394C49.236 46.0461 49.9478 45.3263 50.2304 44.873C50.3664 44.6478 50.569 44.1719 50.593 43.9826C50.637 43.588 50.2171 42.5203 50.2931 42.0937C50.3157 41.9751 50.4837 41.2606 50.4837 40.858C50.4797 40.5621 50.437 40.2209 50.3637 40.0102C50.2091 39.5917 49.5106 38.7265 49.108 38.4946C48.7548 38.2973 47.8563 38.0201 47.2605 37.9121C46.318 37.7441 42.4896 37.6948 41.7991 37.7961C40.7634 37.9521 39.2584 38.3933 37.8668 38.8878C36.9656 39.2384 34.8462 40.0822 34.133 40.4248C33.2985 40.8274 31.2977 42.0351 30.8885 42.311C30.0633 42.8695 28.2704 44.2772 27.5893 44.937C26.6975 45.8142 25.3898 47.2911 24.8566 48.0856C24.2328 49.0214 23.3037 50.8889 23.0291 51.842C22.8851 52.3526 22.6611 53.447 22.6131 53.9042C22.5718 54.3281 22.6212 55.3038 22.8158 55.7504C22.9237 55.989 23.2463 56.3849 23.4516 56.5435C23.6396 56.6808 24.0368 56.8368 24.2288 56.8448Z" stroke="black" stroke-width="2.03684" stroke-linecap="round" stroke-linejoin="round"/>
<path d="M27.2518 58.6844C26.8919 58.7683 25.9548 59.3762 25.8895 59.4188C25.6002 59.6108 24.8884 60.1987 24.6578 60.4519C24.4045 60.7359 24.0419 61.389 23.9473 61.7449C23.8486 62.1275 23.8006 62.826 23.8673 63.1446C23.9393 63.4579 24.2592 63.9058 24.5191 64.0604C24.7604 64.1977 25.4082 64.351 25.7562 64.3576C26.0668 64.3616 26.9012 64.2003 27.1198 64.1204C27.3011 64.0524 29.5006 63.1073 30.1817 62.9727C30.487 62.914 31.2655 62.838 31.7027 62.85C32.1919 62.8673 33.0211 63.022 33.201 63.0433C33.5236 63.0793 34.0261 62.9913 34.4061 62.826C34.7233 62.6767 35.5085 62.3062 35.5524 62.1689C35.5778 62.0835 35.3805 61.3757 35.3472 61.2944C35.2845 61.1544 34.8619 60.7652 34.3887 60.2533C34.0821 59.9294 33.6569 59.6561 33.2477 59.5002C32.7864 59.3282 31.6694 58.939 30.7203 58.7537C29.9871 58.6137 29.4793 58.4804 29.1553 58.5071C28.6381 58.5457 27.3611 58.6604 27.2518 58.6844Z" stroke="black" stroke-width="2.03684" stroke-linecap="round" stroke-linejoin="round"/>
<path d="M130.34 11.9837C133.457 11.1306 141.34 8.98847 146.106 7.70079C148.425 7.11693 152.955 6.01586 155.166 5.49865C157.447 5.0241 161.862 4.16299 163.995 3.77508C165.999 3.46849 170.016 2.8913 172.029 2.6207C174.08 2.37942 178.183 1.93686 180.236 1.73558C182.323 1.56762 186.549 1.25969 188.685 1.11973C190.843 1.01442 195.142 0.845123 197.284 0.782472C200.46 0.735817 203.661 0.793143 205.784 0.839798C207.924 0.92911 212.211 1.15038 214.361 1.28235C216.476 1.45164 220.659 1.8249 222.727 2.02885C224.757 2.26079 228.875 2.8313 230.92 3.13123C232.932 3.46848 236.939 4.17765 238.966 4.58955C241.025 5.04544 245.241 6.08785 247.376 6.67171C249.498 7.30889 253.821 8.66589 256.021 9.38571C258.27 10.1735 262.476 11.6625 264.435 12.365C266.015 12.9422 268.666 13.9153 271.518 15.1683C272.288 15.5122 273.181 15.9108 273.303 15.9654" stroke="black" stroke-width="1.53029" stroke-linecap="round" stroke-linejoin="round"/>
<path d="M288.318 17.5984L275.011 20.291L289.561 23.6609L280.573 15.079L282.043 25.5671L288.432 17.573" stroke="black" stroke-width="1.53029" stroke-linecap="round" stroke-linejoin="round"/>
</svg>
