<svg width="108" height="37" viewBox="0 0 108 37" fill="none" xmlns="http://www.w3.org/2000/svg">
<path d="M14.0363 29.8572C13.6084 30.2435 13.2752 30.5592 12.8997 30.964C12.7403 31.1414 12.4945 31.4546 12.3963 31.6078C12.2991 31.7606 12.0897 32.1807 12.0471 32.3145C12.0208 32.4019 12.0054 32.5659 12.0167 32.6446C12.0306 32.7259 12.0928 32.8565 12.1504 32.9239C12.2646 33.0514 12.6231 33.2453 12.8637 33.3302C13.0854 33.4058 13.4454 33.4721 13.6578 33.4814C13.8722 33.4896 14.7465 33.4017 15.1353 33.3451C15.8795 33.2299 17.5509 32.8401 18.1536 32.6709C18.922 32.4435 20.4175 31.9493 21.1642 31.6922C21.8709 31.4258 23.3144 30.8611 24.0509 30.5628C24.794 30.2424 26.2361 29.6021 26.9355 29.2823C27.6267 28.949 29.0137 28.2619 29.709 27.9091C30.4336 27.5208 31.8505 26.7391 32.5427 26.3462C33.2077 25.9533 34.5947 25.0893 35.2741 24.6424C35.6155 24.4079 36.2851 23.9384 36.6127 23.7028C36.9439 23.4498 37.6691 22.8846 37.8866 22.7015C38.1885 22.4408 38.7866 21.8915 38.999 21.6591C39.2335 21.3973 39.791 20.7699 39.8589 20.6202C39.9674 20.3729 40.0142 19.6853 39.9782 19.5423C39.955 19.4574 39.8722 19.3088 39.8162 19.2502C39.7185 19.1525 39.3909 19.0187 39.163 18.9848C38.746 18.9252 37.9241 18.9231 37.5184 18.9689C36.8796 19.0419 35.4535 19.3283 34.5829 19.5521" stroke="white" stroke-width="0.713822" stroke-linecap="round" stroke-linejoin="round"/>
<path d="M13.8033 28.8816C13.5179 29.1454 13.0119 29.6186 12.6909 29.941C12.4148 30.2265 11.9154 30.8343 11.6505 31.1697C11.3471 31.5615 10.947 32.1746 10.766 32.5474C10.5829 32.9264 10.3875 33.5971 10.3535 33.9761C10.3376 34.171 10.3895 34.5325 10.4559 34.694C10.5119 34.8257 10.732 35.1404 10.8694 35.2844C11.0056 35.4253 11.3147 35.6804 11.4772 35.7864C11.6351 35.8877 11.9828 36.042 12.1556 36.0944C12.4235 36.1746 13.2294 36.2919 13.684 36.3176C13.9484 36.3305 15.0587 36.3289 15.2973 36.314C15.9793 36.2677 17.7623 35.9916 18.2863 35.8866C19.1699 35.6922 20.4057 35.3739 21.1658 35.1543C21.9516 34.9121 23.5222 34.3803 24.272 34.1041C24.9802 33.8336 26.3878 33.2556 27.1001 32.9434C27.7985 32.6235 29.1855 31.9694 29.8967 31.6089C30.6224 31.2242 32.0552 30.4456 32.7402 30.0475C33.4052 29.6484 34.7711 28.7813 35.4484 28.3267C36.1057 27.8639 37.4685 26.8471 37.9576 26.4496C38.5089 25.9831 39.8059 24.7905 40.1752 24.3925C40.4333 24.1091 41.0448 23.3588 41.1811 23.1762C41.4614 22.8008 41.843 22.1579 41.9901 21.8396C42.0672 21.6714 42.2035 21.3032 42.2379 21.1695C42.2801 21.0044 42.3326 20.6043 42.3351 20.4274C42.3367 20.2366 42.2719 19.876 42.2107 19.732C42.1485 19.5896 41.9227 19.2769 41.7792 19.136C41.6373 18.9982 41.3025 18.7534 41.1369 18.6665C40.837 18.5111 40.0785 18.3147 39.6377 18.2499C39.2849 18.1995 38.5963 18.1774 37.9843 18.1805C37.6058 18.1856 36.9259 18.2278 36.4261 18.2926C35.6222 18.4206 34.3705 18.6279 33.9112 18.7369" stroke="white" stroke-width="0.713822" stroke-linecap="round" stroke-linejoin="round"/>
<path d="M15.2721 31.9073C14.9995 31.4265 14.7727 30.9472 14.5891 30.4555C14.4523 30.0785 14.2446 29.3555 14.1551 28.9497C14.0574 28.4622 13.9936 28.0384 13.9427 27.5493C13.9139 27.198 13.8985 26.3443 13.9062 26.1314C13.917 25.8511 13.9936 25.0694 14.0517 24.7074C14.1458 24.1921 14.2734 23.6433 14.386 23.2689C14.4971 22.9125 14.8144 22.0835 14.944 21.8012C15.0978 21.4669 15.467 20.7942 15.6866 20.4486C15.9242 20.0897 16.2534 19.6325 16.5259 19.3013C16.8535 18.9202 17.2542 18.4959 17.5663 18.2079C17.8615 17.9405 18.5779 17.3748 18.8207 17.2081C19.0027 17.0837 19.787 16.6121 20.0662 16.4609C20.3954 16.2845 20.9266 16.0726 21.4702 15.8803C21.9753 15.71 22.7498 15.4868 23.0974 15.4179C23.4142 15.3557 24.4068 15.2456 24.6423 15.2348C25.0203 15.2204 25.8704 15.2323 26.1399 15.2539C26.5066 15.2837 27.4621 15.4344 27.7625 15.5028C28.1111 15.5825 29.0209 15.8633 29.3058 15.9728C29.5907 16.0824 30.4496 16.4804 30.7731 16.6609C30.9526 16.7612 31.7147 17.2493 32.0161 17.4684C32.2496 17.6406 32.8893 18.1894 33.1629 18.4506C33.4689 18.7515 33.9344 19.2781 34.229 19.653C34.4687 19.9667 34.8647 20.5592 35.0797 20.9279C35.2663 21.2586 35.6289 22.0048 35.7781 22.3767C35.9215 22.7372 36.1103 23.38 36.1715 23.5919" stroke="white" stroke-width="0.713822" stroke-linecap="round" stroke-linejoin="round"/>
<path d="M36.4842 28.0059C36.4831 28.0136 36.3427 28.8246 36.2985 29.0334C36.2116 29.4433 35.9951 30.1736 35.8495 30.5567C35.6747 31.0057 35.4803 31.4068 35.2211 31.9072" stroke="white" stroke-width="0.713822" stroke-linecap="round" stroke-linejoin="round"/>
<path d="M2.53748 32.2485C4.05563 32.2485 7.52498 32.2485 9.47719 32.2485C9.80427 32.2485 10.3314 32.2485 10.5309 32.2485" stroke="white" stroke-width="0.713822" stroke-linecap="round" stroke-linejoin="round"/>
<path d="M12.4379 32.2485H18.852" stroke="white" stroke-width="0.713822" stroke-linecap="round" stroke-linejoin="round"/>
<path d="M29.2935 32.2485C30.8533 32.2485 34.2558 32.2485 36.0979 32.2485C36.246 32.2485 36.5232 32.2485 36.6523 32.2485" stroke="white" stroke-width="0.713822" stroke-linecap="round" stroke-linejoin="round"/>
<path d="M4.84403 31.9054C4.72266 31.4683 4.61775 30.8393 4.60026 30.5014C4.58175 30.1327 4.62855 29.4183 4.68718 29.0969C4.75609 28.7235 4.951 28.075 5.07443 27.785C5.21894 27.4471 5.53986 26.8742 5.71626 26.6253C5.923 26.3347 6.35242 25.8492 6.57305 25.6466C6.83276 25.409 7.35887 25.0207 7.61755 24.8685C7.92252 24.6895 8.54171 24.4118 8.83588 24.3156C9.18302 24.2035 9.89119 24.0606 10.2178 24.0323C10.6014 24.0004 11.3584 24.0271 11.6994 24.0811C12.082 24.1423 12.8067 24.3434 13.1456 24.492C13.2546 24.5404 13.6449 24.7245 13.6984 24.7533" stroke="white" stroke-width="0.713822" stroke-linecap="round" stroke-linejoin="round"/>
<path d="M15.717 33.2544L15.7041 33.2642" stroke="white" stroke-width="0.713822" stroke-linecap="round" stroke-linejoin="round"/>
<path d="M11.7878 35.9746L11.6706 35.9792" stroke="white" stroke-width="0.713822" stroke-linecap="round" stroke-linejoin="round"/>
<path d="M7.00505 24.8599C6.90476 24.667 6.57305 23.8601 6.47894 23.5582C6.36528 23.19 6.20894 22.4453 6.15905 22.0334C6.11585 21.6729 6.09631 20.8474 6.1246 20.4519C6.15597 20.0246 6.28968 19.2429 6.38174 18.8926C6.47431 18.5429 6.74276 17.7983 6.92636 17.4095C7.09659 17.0515 7.51881 16.3454 7.73687 16.0497C7.99915 15.6964 8.48721 15.1461 8.80503 14.8468C9.07657 14.5922 9.74257 14.0795 10.0882 13.864C10.459 13.6336 11.1661 13.2829 11.5024 13.1522C11.8305 13.0252 12.5871 12.803 12.9656 12.729C13.3127 12.6621 14.0733 12.5824 14.3876 12.5752C14.7373 12.568 15.3045 12.6004 15.7087 12.6488C15.9746 12.6827 16.8726 12.875 17.1204 12.9563C17.3328 13.0268 18.3455 13.4521 18.6412 13.6069C18.9842 13.7874 19.6152 14.2127 19.9145 14.4616C20.6669 15.0901 21.0758 15.6028 21.1102 15.6455" stroke="white" stroke-width="0.713822" stroke-linecap="round" stroke-linejoin="round"/>
<path d="M14.0502 29.6016L13.6809 29.7445" stroke="white" stroke-width="0.713822" stroke-linecap="round" stroke-linejoin="round"/>
<path d="M12.9074 29.7231L12.8972 29.7262" stroke="white" stroke-width="0.713822" stroke-linecap="round" stroke-linejoin="round"/>
<path d="M4.59512 28.7953C4.32718 28.6508 3.6185 28.2677 3.30479 28.0182C3.00342 27.7755 2.48245 27.1656 2.2428 26.7943C2.01446 26.4379 1.68737 25.7605 1.56446 25.3831C1.46006 25.0606 1.28109 24.2301 1.24303 23.8875C1.19983 23.491 1.17669 22.7124 1.17823 22.3344C1.18852 21.9112 1.25486 21.2812 1.34075 20.7494C1.43692 20.2253 1.6128 19.5059 1.66886 19.3135C1.77377 18.9561 2.00931 18.375 2.23817 17.8807C2.41971 17.5094 2.84605 16.7118 2.98439 16.4973C3.11502 16.2957 3.44673 15.891 3.47604 15.855" stroke="white" stroke-width="0.713822" stroke-linecap="round" stroke-linejoin="round"/>
<path d="M3.48016 15.8976L3.45959 15.8955C3.45496 15.9361 3.50073 17.2321 3.50999 17.3694C3.52541 17.5952 3.57376 17.803 3.62416 17.9341C3.65038 18.003 3.74861 18.2005 3.75324 18.2298" stroke="white" stroke-width="0.713822" stroke-linecap="round" stroke-linejoin="round"/>
<path d="M3.86946 18.3148C3.92655 18.2583 4.07466 18.105 4.09214 18.0885C4.18369 18.0042 4.29889 17.9543 4.35906 17.9764C4.44494 18.0135 4.52208 18.2428 4.60797 18.592C4.73962 19.113 5.12174 20.4265 5.20968 20.6779C5.33516 21.0256 5.62059 21.3985 5.8227 21.6155C5.90344 21.7045 5.9667 21.7425 6.09887 21.7924" stroke="white" stroke-width="0.713822" stroke-linecap="round" stroke-linejoin="round"/>
<path d="M4.4758 28.502C4.27369 28.3107 3.91112 27.853 3.7517 27.5388C3.67301 27.3824 3.54547 27.042 3.49867 26.8645C3.45341 26.6861 3.39993 26.3137 3.39376 26.1296C3.38296 25.7624 3.51307 25.0589 3.6473 24.7298C3.71621 24.5636 3.88952 24.2453 3.99649 24.0895C4.10501 23.9331 4.36523 23.6379 4.51489 23.5017C5.00911 23.0573 5.72396 22.8027 5.92608 22.7446" stroke="white" stroke-width="0.713822" stroke-linecap="round" stroke-linejoin="round"/>
<path d="M6.3519 23.854C6.27064 23.8787 6.15338 23.926 6.11276 23.962C6.04539 24.0232 5.93019 24.395 5.9127 24.5035C5.88956 24.6491 5.8911 24.9119 5.91527 25.0533C5.94201 25.1963 6.09218 25.4364 6.1827 25.4838C6.20481 25.4951 6.25624 25.5126 6.33698 25.5357" stroke="white" stroke-width="0.594509" stroke-linecap="round" stroke-linejoin="round"/>
<path d="M3.61902 25.0521C3.72085 25.0377 3.87564 25.0243 3.94302 25.0331C4.0973 25.0536 4.38941 25.2758 4.49124 25.4224C4.57661 25.5494 4.69489 25.859 4.71701 26.0128C4.74221 26.2056 4.68821 26.5461 4.60181 26.6875C4.52312 26.8109 4.27678 26.956 4.13124 26.9786C3.99444 26.9971 3.82679 26.9776 3.69873 26.956" stroke="white" stroke-width="0.594509" stroke-linecap="round" stroke-linejoin="round"/>
<path d="M2.95661 19.3145C2.9093 19.4718 2.78793 19.8822 2.74627 20.0612C2.70153 20.2576 2.6357 20.6927 2.62233 20.8455C2.60381 21.0625 2.61616 21.4246 2.64804 21.6205C2.6861 21.8452 2.77918 22.143 2.86044 22.305C2.9309 22.4418 3.10472 22.6635 3.17775 22.7493" stroke="white" stroke-width="0.594509" stroke-linecap="round" stroke-linejoin="round"/>
<path d="M33.867 12.0683C33.8119 12.0976 33.6937 12.1418 33.6314 12.1578C33.5183 12.185 33.2663 12.1886 33.1413 12.1598C33.0035 12.1259 32.7453 11.9844 32.644 11.8831C32.5201 11.7556 32.3869 11.4851 32.3555 11.3411C32.3272 11.194 32.3612 10.8597 32.4373 10.6951C32.516 10.5321 32.7484 10.2981 32.8744 10.2287C32.9994 10.1629 33.2843 10.0893 33.455 10.0996C33.6176 10.1114 33.9261 10.2364 34.0511 10.3393C34.1827 10.4514 34.3602 10.7394 34.4008 10.9091C34.4342 11.0557 34.4157 11.338 34.3735 11.4727C34.3041 11.6846 34.0675 11.9392 33.9781 12.0014C33.941 12.0261 33.904 12.0487 33.867 12.0683Z" stroke="white" stroke-width="0.594509" stroke-linecap="round" stroke-linejoin="round"/>
<path d="M34.7629 12.645C34.605 12.7757 34.5052 12.8456 34.4029 12.9068C34.3129 12.9598 33.9539 13.0992 33.8526 13.1218C33.6196 13.1727 33.0863 13.164 32.8148 13.0827C32.5494 13.0004 32.0999 12.7124 31.9245 12.5247C31.7584 12.3442 31.528 11.9297 31.4643 11.7096C31.4051 11.5008 31.3763 11.0569 31.4118 10.8327C31.455 10.5709 31.6005 10.2521 31.6288 10.1914" stroke="white" stroke-width="0.594509" stroke-linecap="round" stroke-linejoin="round"/>
<path d="M32.3061 9.49172C32.8513 9.11886 34.156 8.22659 34.9161 7.70716C36.2527 6.79328 38.5356 5.23244 39.4824 4.58496" stroke="white" stroke-width="0.594509" stroke-linecap="round" stroke-linejoin="round"/>
<path d="M34.7608 12.6455L37.5441 10.7422" stroke="white" stroke-width="0.594509" stroke-linecap="round" stroke-linejoin="round"/>
<path d="M34.0938 8.24481C34.0953 8.24378 34.0907 8.24738 34.0886 8.24841C34.0506 8.27464 34.0125 8.30087 33.974 8.32658C33.3326 8.76526 32.6394 9.23943 32.588 9.2744" stroke="white" stroke-width="0.594509" stroke-linecap="round" stroke-linejoin="round"/>
<path d="M35.688 8.3412L39.1461 5.97705C39.1296 5.98785 39.1132 5.99917 39.0972 6.01048C39.0926 6.01305 39.088 6.01614 39.0838 6.01922" stroke="white" stroke-width="0.594509" stroke-linecap="round" stroke-linejoin="round"/>
<path d="M35.2365 9.87629L35.2057 9.89737C36.5058 9.00818 39.1944 7.17014 40.5825 6.22078C41.9114 5.31256 43.2896 4.36988 43.3395 4.33594" stroke="white" stroke-width="0.594509" stroke-linecap="round" stroke-linejoin="round"/>
<path d="M37.8136 9.26194L37.7837 9.28199C38.1262 9.048 38.6637 8.68028 38.8591 8.54709C38.8601 8.54606 38.8632 8.544 38.8622 8.54451" stroke="white" stroke-width="0.594509" stroke-linecap="round" stroke-linejoin="round"/>
<path d="M40.4308 7.61671L40.3973 7.63934L42.8463 5.96484" stroke="white" stroke-width="0.594509" stroke-linecap="round" stroke-linejoin="round"/>
<path d="M18.9374 11.2656C19.0444 10.8906 19.2696 10.128 19.4054 9.84254C19.4815 9.68414 19.6821 9.36992 19.7947 9.25317C20.0966 8.94563 20.5111 8.77746 20.6068 8.74609" stroke="white" stroke-width="0.594509" stroke-linecap="round" stroke-linejoin="round"/>
<path d="M18.9374 6.24268C19.0444 6.60936 19.2717 7.36947 19.4054 7.65026C19.4815 7.80866 19.6821 8.12289 19.7947 8.23963C20.0966 8.54717 20.5111 8.71534 20.6068 8.7462" stroke="white" stroke-width="0.594509" stroke-linecap="round" stroke-linejoin="round"/>
<path d="M18.943 6.18604C18.8222 6.66535 18.6736 7.19865 18.5517 7.48511C18.4709 7.67231 18.3038 7.97522 18.2092 8.10019C18.1012 8.23904 17.7535 8.53013 17.627 8.59956C17.5339 8.64944 17.3719 8.71527 17.2763 8.74613" stroke="white" stroke-width="0.594509" stroke-linecap="round" stroke-linejoin="round"/>
<path d="M18.943 11.3067C18.8222 10.8274 18.6736 10.2941 18.5517 10.0076C18.4709 9.82043 18.3038 9.517 18.2092 9.39254C18.1012 9.25317 17.7535 8.96209 17.627 8.89318C17.5339 8.84278 17.3719 8.77746 17.2763 8.74609" stroke="white" stroke-width="0.594509" stroke-linecap="round" stroke-linejoin="round"/>
<path d="M23.856 12.3384H25.2785" stroke="white" stroke-width="0.713822" stroke-linecap="round" stroke-linejoin="round"/>
<path d="M24.5796 13.0622V11.6396" stroke="white" stroke-width="0.713822" stroke-linecap="round" stroke-linejoin="round"/>
<path d="M1.5444 28.0552L1.55058 31.5878" stroke="white" stroke-width="0.713822" stroke-linecap="round" stroke-linejoin="round"/>
<path d="M2.71593 29.2271H0.356918" stroke="white" stroke-width="0.713822" stroke-linecap="round" stroke-linejoin="round"/>
<path d="M33.5615 16.5015H34.984" stroke="white" stroke-width="0.713822" stroke-linecap="round" stroke-linejoin="round"/>
<path d="M34.2851 17.2252V15.8027" stroke="white" stroke-width="0.713822" stroke-linecap="round" stroke-linejoin="round"/>
<path d="M5.83556 16.382C5.82013 16.3871 5.77333 16.3897 5.76099 16.3897C5.66636 16.3856 5.52082 16.2596 5.50334 16.167C5.49099 16.0919 5.54396 15.9474 5.61082 15.8965C5.67202 15.8517 5.82836 15.8394 5.89985 15.8759C5.98419 15.9207 6.06133 16.1037 6.03202 16.1979C6.02019 16.2333 5.98625 16.2873 5.96208 16.3125C5.93893 16.3352 5.88493 16.365 5.83556 16.382Z" stroke="white" stroke-width="0.713822" stroke-linecap="round" stroke-linejoin="round"/>
<path d="M37.9164 30.8157C37.8912 30.8255 37.8434 30.8368 37.8182 30.8389C37.7303 30.8466 37.5729 30.7777 37.5184 30.7123C37.4639 30.6445 37.4294 30.465 37.4613 30.3755C37.4968 30.2793 37.6629 30.1533 37.7724 30.1466C37.8583 30.1425 38.0208 30.2212 38.0743 30.2978C38.1921 30.4712 38.0779 30.6866 38.0548 30.7149C38.0435 30.7283 38.0157 30.755 37.9992 30.7684C37.9817 30.7823 37.938 30.807 37.9164 30.8157Z" stroke="white" stroke-width="0.713822" stroke-linecap="round" stroke-linejoin="round"/>
<path d="M26.4042 15.3315C26.4351 15.6298 26.5374 16.6106 26.5539 16.8461C26.5878 17.3455 26.5698 18.1395 26.5122 18.553C26.4624 18.9022 26.2582 19.7086 26.1296 20.0845C26.036 20.355 25.6704 21.2185 25.5166 21.5297C25.3345 21.8974 24.9247 22.5953 24.6932 22.9265C24.4567 23.2582 23.9347 23.8851 23.6698 24.1839C23.2826 24.6035 22.9884 24.8951 22.5703 25.27C22.2308 25.5611 21.7202 25.952 21.3345 26.2112C21.137 26.3423 20.3254 26.8057 19.9613 26.998C19.5874 27.1868 18.727 27.5838 18.5311 27.662C18.1392 27.8167 17.374 28.0549 16.9939 28.1402C16.2369 28.3094 15.2526 28.3763 14.1566 28.4267" stroke="white" stroke-width="0.713822" stroke-linecap="round" stroke-linejoin="round"/>
<path d="M31.2868 17.2705C31.2585 17.5482 31.1855 18.2564 31.1413 18.6863C31.0873 19.1471 30.9248 20.0101 30.8157 20.3922C30.7067 20.7697 30.4491 21.4362 30.2737 21.8024C30.1312 22.0996 29.7949 22.7075 29.5095 23.1606C29.2852 23.4954 28.7946 24.1722 28.5354 24.5023C28.2166 24.8855 27.7913 25.3586 27.4251 25.7109C27.1273 25.9891 26.503 26.5142 26.1908 26.7616C25.8812 26.9966 25.3839 27.3561 24.9 27.6626C24.5523 27.8698 23.8601 28.2463 23.5114 28.4196C23.0316 28.6454 22.4607 28.8784 22.1069 29.0131C21.6137 29.1895 21.0645 29.3587 20.6304 29.4651C19.9973 29.6148 18.4478 29.7953 17.9803 29.8478" stroke="white" stroke-width="0.713822" stroke-linecap="round" stroke-linejoin="round"/>
<path d="M23.1843 15.6528C23.225 16.001 23.3278 16.9216 23.3453 17.2697C23.3648 17.6858 23.3283 18.4891 23.28 18.9087C23.2553 19.1181 23.1021 20.0361 23.0234 20.4171C22.9257 20.8424 22.7071 21.5604 22.5626 21.9363C22.4145 22.32 22.0575 23.0616 21.9079 23.3249C21.5253 23.994 20.668 24.914 20.4391 25.1583" stroke="white" stroke-width="0.713822" stroke-linecap="round" stroke-linejoin="round"/>
<path d="M5.19683 31.8381C5.14231 31.2138 5.1166 30.7458 5.20763 30.3606C5.25391 30.1698 5.38557 29.8211 5.47711 29.6401C5.56402 29.4698 5.76819 29.1541 5.88751 29.0111C6.10608 28.7514 6.74481 28.2402 7.0575 28.0417C7.42932 27.8103 9.4237 26.7452 9.74307 26.5528C10.0763 26.3518 10.6744 25.9264 10.9043 25.6827C11.1543 25.4142 11.6315 24.6191 11.704 24.3666C11.7184 24.3173 11.7395 24.1501 11.7488 24.0879" stroke="white" stroke-width="0.713822" stroke-linecap="round" stroke-linejoin="round"/>
<path d="M10.0012 31.785C9.9241 31.6389 9.70296 31.2229 9.6433 31.0598C9.56719 30.8469 9.53633 30.4617 9.5749 30.255C9.6145 30.0565 9.75182 29.7027 9.86136 29.5206C10.0619 29.1925 10.4482 28.7358 10.8087 28.3635C11.6171 27.5509 12.1705 26.9286 12.3093 26.7173C12.4122 26.5589 12.5896 26.2025 12.6585 26.0194C12.7295 25.8281 12.8072 25.4506 12.8041 25.2562C12.7969 24.9574 12.6853 24.5609 12.6585 24.4868" stroke="white" stroke-width="0.713822" stroke-linecap="round" stroke-linejoin="round"/>
<path d="M8.49182 20.5437C8.56177 20.5447 8.71965 20.4979 8.79422 20.4557C8.84873 20.4238 9.28022 20.1765 9.4561 20.1286C9.82484 20.0309 11.3245 20.0613 12.2723 20.1081C12.6817 20.1219 13.3883 20.0741 13.6958 19.9857C13.8851 19.9286 14.1962 19.7095 14.331 19.5393C14.5835 19.2137 14.9533 18.3986 14.9846 18.359C15.0073 18.3312 15.4259 17.9445 15.4758 17.9013C15.6954 17.7131 16.6437 17.1576 16.708 17.1191C16.9698 16.9565 17.2341 16.7796 17.3621 16.6536C17.501 16.5137 17.7155 16.1646 17.7319 16.036C17.7473 15.8976 17.5992 15.5212 17.6265 15.3736C17.6347 15.3319 17.682 15.1854 17.6923 15.0547C17.7021 14.9272 17.6676 14.6454 17.5766 14.4901C17.4727 14.3188 17.2392 14.1157 17.0623 14.0426C16.7867 13.9336 16.1155 13.8451 15.755 13.8451C15.5802 13.8457 15.0505 13.8369 15.0258 13.8369C14.8401 13.839 14.4698 13.8955 14.2806 13.9367C13.9843 14.002 13.2716 14.2504 12.9326 14.3805C12.386 14.597 11.7904 14.8644 11.4484 15.0619C11.1162 15.2548 10.5407 15.6426 10.2327 15.8838C9.90815 16.1394 9.35684 16.6778 9.1645 16.8948C8.89862 17.1952 8.49337 17.802 8.34063 18.1065C8.26348 18.2633 8.11897 18.6213 8.06394 18.8157C8.00789 19.0173 7.9256 19.4585 7.91686 19.6329C7.90811 19.8453 7.98166 20.1775 8.09223 20.3163C8.20691 20.4542 8.42445 20.5411 8.49182 20.5437Z" stroke="white" stroke-width="0.713822" stroke-linecap="round" stroke-linejoin="round"/>
<path d="M9.55124 21.1885C9.42936 21.2158 9.09662 21.4308 9.07399 21.4462C8.97216 21.5136 8.72274 21.7193 8.642 21.8077C8.55303 21.9075 8.426 22.1364 8.39308 22.2613C8.35863 22.3956 8.34166 22.6398 8.36531 22.752C8.39 22.862 8.50211 23.0184 8.59314 23.0724C8.67851 23.1212 8.90479 23.1742 9.02719 23.1773C9.13622 23.1783 9.42833 23.1217 9.50496 23.0934C9.56822 23.0698 10.352 22.7334 10.5783 22.6913C10.7809 22.6548 11.1213 22.6434 11.2715 22.6573C11.3389 22.6635 11.6552 22.7232 11.7411 22.7232C11.8948 22.7206 12.3412 22.5097 12.3695 22.4943C12.4482 22.4485 12.4693 22.3796 12.4374 22.2603C12.4004 22.1317 12.3695 22.0613 12.3309 22.0217C12.2198 21.9193 12.0008 21.6828 11.9596 21.6463C11.8429 21.5449 11.1856 21.3017 10.9671 21.2549C10.767 21.2127 10.3525 21.1212 10.3371 21.1201C10.3216 21.1186 9.6073 21.1767 9.55124 21.1885Z" stroke="white" stroke-width="0.713822" stroke-linecap="round" stroke-linejoin="round"/>
<path d="M46.2858 4.6236C47.4882 4.29446 50.5292 3.46852 52.3682 2.97121C53.2626 2.74596 55.0106 2.32167 55.8638 2.12162C56.7438 1.93905 58.4465 1.60631 59.2699 1.45717C60.0429 1.33837 61.5929 1.11569 62.3695 1.0118C63.161 0.918201 64.7439 0.74746 65.5359 0.669804C66.3413 0.605004 67.971 0.486205 68.7954 0.432206C69.628 0.391578 71.2866 0.326778 72.113 0.302093C73.3386 0.284093 74.5729 0.306207 75.3926 0.324207C76.2175 0.358663 77.872 0.444034 78.701 0.494948C79.5172 0.560262 81.131 0.70426 81.9286 0.783459C82.7124 0.87243 84.3005 1.09306 85.0899 1.20877C85.866 1.33888 87.4124 1.61197 88.1941 1.77139C88.9882 1.94728 90.6148 2.34945 91.4387 2.57419C92.2574 2.82053 93.9253 3.34407 94.7743 3.62178C95.6414 3.9252 97.2645 4.50017 98.02 4.7712C98.6299 4.99337 99.6528 5.36879 100.753 5.85222C101.05 5.98541 101.394 6.13919 101.441 6.15976" stroke="white" stroke-width="0.590395" stroke-linecap="round" stroke-linejoin="round"/>
<path d="M107.234 6.78986L102.101 7.82871L107.714 9.12933L104.246 5.81787L104.814 9.86475L107.279 6.78009" stroke="white" stroke-width="0.590395" stroke-linecap="round" stroke-linejoin="round"/>
<path d="M59.5811 9.9846C59.4869 9.97585 59.326 10.016 59.2802 10.0705C59.1897 10.1857 59.1424 10.5411 59.1213 10.7051C59.0657 11.223 59.0544 12.0299 59.1218 12.3462C59.1599 12.5174 59.2329 12.7381 59.29 12.8368C59.3815 12.9906 59.6412 13.2097 59.6741 13.1891C59.7014 13.1654 59.5934 12.8106 59.488 12.6969C59.3579 12.5611 58.9979 12.4619 58.751 12.4357C58.4126 12.4094 57.7055 12.4578 57.0148 12.539C56.627 12.593 56.1241 12.6769 55.9667 12.7627C55.8854 12.8085 55.7882 12.9222 55.7728 12.9875C55.7589 13.0605 55.7913 13.1855 55.8427 13.2683C55.942 13.4215 56.2511 13.7275 56.3668 13.7892C56.4522 13.8319 56.5777 13.8561 56.6615 13.8453C57.0204 13.7934 58.0043 13.7538 58.4831 13.7389C58.8467 13.7286 59.0699 13.7147 59.1218 13.7892C59.128 13.7985 59.1275 16.1416 59.128 16.1555C59.1285 16.2665 59.0961 16.3339 59.022 16.3488C59.0128 16.3509 56.841 16.4522 56.5833 16.4789C56.4141 16.5 56.0443 16.5473 55.9245 16.6219C55.8618 16.6625 55.7944 16.7803 55.7795 16.8585C55.7677 16.9418 55.7872 17.0627 55.8294 17.1619C55.8762 17.2653 55.9883 17.435 56.0562 17.4916C56.1307 17.5507 56.2953 17.616 56.3874 17.6289C56.5427 17.6464 57.0204 17.5985 57.1778 17.5944C57.3974 17.5893 57.8294 17.6129 58.0048 17.633C58.3314 17.6726 58.6193 17.6824 58.8148 17.6438C58.9068 17.6237 59.1115 17.5476 59.2056 17.4957C59.3897 17.3918 59.7199 17.0251 59.7893 16.9171C59.8125 16.8796 59.8022 16.86 59.7693 16.8785C59.6757 16.9346 59.3301 17.2488 59.2247 17.436C59.1187 17.6299 59.0138 18.0388 59.002 18.247C58.9917 18.4553 59.0297 18.8863 59.0735 19.0745C59.0966 19.1697 59.1712 19.3522 59.2216 19.4278C59.2766 19.5075 59.4216 19.6078 59.5127 19.6356C59.598 19.6587 59.7662 19.6526 59.8433 19.6269C59.9236 19.5975 60.1699 19.3795 60.262 19.254C60.37 19.1028 60.5237 18.6585 60.5649 18.3808C60.5818 18.2573 60.6261 16.1632 60.6338 15.273C60.6112 13.4035 60.5674 10.6506 60.5685 10.6316C60.5685 10.5277 60.5428 10.4161 60.4867 10.36C60.3607 10.2387 59.6433 9.99231 59.5811 9.9846Z" stroke="white" stroke-width="1.62667" stroke-linecap="round" stroke-linejoin="round"/>
<path d="M79.4554 29.5964C79.5696 29.5162 79.8874 29.2925 79.9965 29.1937C80.1281 29.0713 80.2526 28.7895 80.2757 28.592C80.3117 28.2577 80.3549 23.7526 80.3688 21.9053C80.3729 21.0259 80.3806 19.0876 80.3734 18.9708C80.3678 18.8412 80.3889 18.7409 80.4393 18.708C80.6002 18.6103 82.4594 18.6834 82.6162 18.6767C82.808 18.6674 83.1711 18.5913 83.3084 18.5049C83.3933 18.4499 83.6839 18.1624 83.7641 18.0019C83.8011 17.9253 83.8551 17.716 83.85 17.6589C83.8417 17.5967 83.7487 17.4568 83.689 17.4136C83.6057 17.357 83.4982 17.3236 83.3964 17.3184C83.0606 17.3004 82.0531 17.2644 81.8139 17.2691C81.3603 17.2783 80.447 17.411 80.0921 17.5607C79.7213 17.7196 79.3917 18.0976 79.4092 18.1279C79.4297 18.1531 79.7902 18.0276 79.9286 17.9423C80.0268 17.8795 80.1965 17.6985 80.2603 17.5859C80.3333 17.4527 80.3837 17.2989 80.3945 17.1924C80.4274 16.8731 80.483 16.1819 80.4989 15.7756C80.5205 14.6987 80.3837 10.6852 80.3734 10.6405C80.357 10.5685 80.2762 10.4044 80.2315 10.3525C80.1276 10.2394 79.8802 10.1437 79.5753 10.0907C79.4678 10.0753 79.2358 10.0439 79.1932 10.0501C79.1052 10.0645 79.0414 10.0918 79.0008 10.1324C78.9262 10.2116 78.9268 10.6271 78.9262 10.6924C78.9139 11.9833 78.8897 15.033 78.8779 16.7918C78.8671 18.9626 78.8517 23.0424 78.847 24.9509C78.8512 26.3965 78.8635 28.9309 78.865 28.9407C78.8964 29.1197 79.1335 29.4416 79.1932 29.4653C79.2415 29.4853 79.4189 29.5306 79.4554 29.5964ZM79.4554 29.5964C79.492 29.6653 79.5166 30.103 79.5208 30.1868" stroke="white" stroke-width="1.62667" stroke-linecap="round" stroke-linejoin="round"/>
<path d="M46.8562 19.8889C46.9837 19.8153 47.3288 19.6117 47.3807 19.5608C47.4203 19.5222 47.5438 19.3777 47.5772 19.3643C47.6348 19.3427 51.5104 19.155 52.2834 19.1108C52.9802 19.0665 53.2338 19.0383 53.3588 18.9801C53.4935 18.9143 53.7203 18.6263 53.8103 18.4113C53.8355 18.3471 53.8849 18.1614 53.8741 18.1177C53.8555 18.0488 53.8242 17.9979 53.7805 17.9644C53.727 17.9248 53.6529 17.9197 53.5984 17.8816C53.5187 17.8261 53.4729 17.7027 53.476 17.5983C53.477 17.5823 53.4786 16.5949 53.4863 16.203C53.5305 15.195 53.6138 13.3575 53.6534 12.5275C53.6771 11.972 53.6756 11.7499 53.6282 11.6902C53.5367 11.5802 53.024 11.3287 52.9252 11.2911C52.8218 11.2526 52.6336 11.2207 52.5626 11.231C52.4932 11.2433 52.3775 11.323 52.3389 11.3842C52.233 11.5627 52.0669 12.744 52.0448 13.0705C52.0299 13.3045 52.0612 13.7118 52.1034 13.8543C52.1533 14.0132 52.2541 14.2056 52.3369 14.2812C52.3934 14.3316 52.5837 14.4375 52.6223 14.4488C52.6629 14.4586 52.6814 14.4298 52.6619 14.3933C52.6434 14.3614 52.539 14.223 52.4927 14.1747C52.4114 14.0924 52.2381 13.9788 52.1147 13.933C51.8977 13.8548 51.532 13.8219 51.3685 13.8075C51.1304 13.7921 50.1049 13.7844 49.5922 13.7972C48.4782 13.8466 47.6682 13.9767 47.643 13.9854C47.5104 14.0358 47.2892 14.1793 47.2121 14.2734C47.1694 14.3259 47.0259 14.581 47.0202 14.5944C47.0136 14.6149 47.2758 14.1922 47.3509 14.0353C47.4414 13.8445 47.5674 13.3858 47.587 13.1965C47.606 12.9867 47.5716 12.5953 47.5145 12.4308C47.4846 12.3505 47.3972 12.1942 47.3432 12.1284C47.2337 12.0003 46.9405 11.8496 46.7322 11.7828C46.6438 11.7571 46.453 11.754 46.3563 11.7859C46.2853 11.8111 46.0981 11.9674 46.0688 12.0178C46.0195 12.1114 46.0662 12.4652 46.0755 12.6725C46.1454 14.3506 46.3311 18.9925 46.346 19.1869C46.3548 19.2877 46.3769 19.4404 46.3969 19.4955C46.4293 19.5798 46.5378 19.732 46.5934 19.7577C46.6392 19.7788 46.8197 19.8236 46.8562 19.8889ZM46.8562 19.8889C46.8891 19.9511 46.8613 20.3404 46.8562 20.4134" stroke="white" stroke-width="1.62667" stroke-linecap="round" stroke-linejoin="round"/>
<path d="M91.0653 12.7393C90.6529 12.2029 90.478 11.9232 90.475 11.8208C90.4765 11.7524 90.5577 11.6434 90.6354 11.61C90.8504 11.5236 91.6352 11.4644 91.9129 11.4593C93.6866 11.4135 96.4097 11.341 97.3591 11.3143C97.7114 11.3076 98.5409 11.2942 98.686 11.3343C98.8243 11.3744 99.1056 11.5647 99.2656 11.7087C99.3504 11.7874 99.4363 11.9232 99.461 12.0178C99.4857 12.1227 99.389 12.567 99.3782 12.6216C99.3448 12.7923 99.3226 13.2156 99.3278 13.43C99.3334 13.6362 99.3741 14.149 99.3694 14.2791C99.3658 14.3753 99.3427 14.529 99.318 14.6293C99.2938 14.7152 99.1936 14.9009 99.121 14.9765C99.0388 15.0598 98.8495 15.142 98.6798 15.1842C98.5687 15.2094 98.4751 15.2223 98.4736 15.2125C98.4808 15.1873 98.9467 14.9888 99.1514 14.9333C99.2584 14.9065 99.4666 14.9024 99.5248 14.9353C99.5664 14.961 99.6451 15.1678 99.658 15.232C99.6703 15.3128 99.661 15.5226 99.6348 15.591C99.5993 15.6769 99.4888 15.7962 99.4065 15.8461C99.2337 15.9448 98.884 16.0544 98.6083 16.0847C98.3352 16.1125 97.4543 16.0693 97.0392 16.0775C96.3948 16.096 94.6612 16.2205 93.8857 16.2812C93.4105 16.3172 92.5182 16.384 92.2117 16.3635C91.7401 16.3275 91.1404 16.0981 91.1528 16.094C91.1661 16.0924 91.2587 16.1135 91.3935 16.1506C91.5698 16.2025 91.754 16.2925 91.8373 16.3846C91.9052 16.4622 92.0188 16.6792 92.0461 16.7662C92.1011 16.9575 92.1294 17.3031 92.1196 17.6157C92.1114 17.9043 92.1114 18.3018 92.1145 18.3147C92.1392 18.4057 92.2348 18.473 92.3773 18.5116C92.474 18.5358 92.8134 18.6361 92.9198 18.6551C93.2037 18.706 94.0945 18.7142 94.4611 18.7153C95.4126 18.7014 97.1251 18.6649 97.8868 18.6428C98.5713 18.6068 99.1961 18.5193 99.3298 18.5116C99.4625 18.5044 99.6302 18.5091 99.7084 18.526C99.7948 18.5461 99.9017 18.6032 99.9665 18.6623C100.036 18.7302 100.112 18.8454 100.117 18.905C100.122 19.0012 99.9161 19.317 99.8112 19.3859C99.7012 19.4558 99.5119 19.4985 99.2764 19.5299C98.5774 19.6112 96.8361 19.7721 96.0282 19.8256C95.6178 19.8472 94.8253 19.8822 94.4725 19.8889C94.005 19.8914 93.2695 19.8374 92.925 19.7618C92.7728 19.7274 92.4308 19.6266 92.2518 19.55C92.0641 19.4687 91.6881 19.2609 91.5411 19.1519C91.3672 19.0208 91.1327 18.76 91.0299 18.5769C90.8709 18.2889 90.6323 17.5108 90.5557 17.0691C90.5372 16.9667 90.5557 16.8644 90.5711 16.7913C90.5757 16.724 90.5151 16.6407 90.4302 16.5898C90.2008 16.455 89.9704 16.2457 89.8439 16.0698C89.7966 15.9983 89.6917 15.843 89.6876 15.8219C89.6809 15.7792 89.701 15.7324 89.6876 15.6908C89.6747 15.644 89.6238 15.6085 89.6223 15.5596C89.6223 15.537 89.8352 15.3359 89.864 15.3179C90.0152 15.2295 90.3484 15.2069 90.4431 15.2084C91.4356 15.2454 93.0325 15.1935 93.8281 15.1637C95.5658 15.0783 97.553 14.9775 97.5715 14.977C97.6749 14.9739 97.7469 14.9502 97.7813 14.8978C97.8194 14.8361 97.9392 13.2644 97.9536 12.6478C97.9536 12.5485 97.9284 12.4436 97.8868 12.4112C97.8785 12.4056 95.6296 12.4724 94.7779 12.5043C93.2582 12.5861 91.2788 12.7234 91.0653 12.7393Z" stroke="white" stroke-width="1.62667" stroke-linecap="round" stroke-linejoin="round"/>
<path d="M71.9778 13.9202C71.9865 13.9172 72.599 13.8755 72.6968 13.8729C72.9097 13.8678 73.3273 13.9161 73.4996 13.9871C73.6497 14.0514 73.9454 14.3538 74.0113 14.4448C74.1064 14.579 74.2766 14.9468 74.2735 14.9694C74.2658 15.0177 74.2005 15.1201 74.2005 15.2193C74.1897 15.5829 74.1691 16.3924 74.1589 16.8378C74.1393 17.3202 74.0339 18.0551 74.0231 18.2119C74.0035 18.5097 74.0452 19.404 74.0807 19.8664C74.1198 20.3699 74.0473 20.9119 74.0113 21.004C73.9424 21.1685 73.7958 21.3604 73.6754 21.419C73.604 21.4529 73.3273 21.5157 73.2897 21.5182C73.2512 21.5188 73.2692 21.4853 73.319 21.4555C73.4265 21.3928 73.9053 21.1855 74.1162 21.113C74.2201 21.079 74.3831 21.0533 74.4299 21.0708C74.4746 21.0904 74.489 21.2369 74.4705 21.3321C74.4479 21.4313 74.2874 21.7718 74.1609 21.994C74.1069 22.0855 73.9958 22.2069 73.9197 22.2506C73.8205 22.3051 71.6019 22.4146 70.6967 22.4594C70.2498 22.4861 69.4079 22.5381 69.013 22.5633C68.4786 22.5843 67.9998 22.5257 67.9438 22.5314C67.8697 22.5401 67.6969 22.6157 67.6203 22.6723C67.5771 22.7052 67.3349 22.9161 67.2757 22.9603C67.1852 23.0251 67.035 23.0518 66.9584 23.0091C66.8833 22.9644 66.7614 22.7587 66.7306 22.644C66.7018 22.5293 66.4513 17.7218 66.3624 15.9594C66.3577 15.8879 66.3454 15.7033 66.3449 15.6837C66.3408 15.5747 66.3222 15.5104 66.2708 15.4636C66.2297 15.4271 66.0903 15.3227 66.0101 15.2358C65.9391 15.1581 65.7725 14.956 65.7468 14.9041C65.7102 14.8295 65.6989 14.6675 65.6809 14.6418C65.6645 14.6156 65.6223 14.6063 65.6151 14.576C65.6131 14.5641 65.736 14.3219 65.7596 14.2967C65.8311 14.2242 65.9689 14.1733 66.0769 14.1666C66.0857 14.1666 67.2202 14.1008 67.7314 14.09C68.2061 14.0812 69.0202 14.0642 69.3586 14.0555C69.4969 14.0534 69.7412 13.983 69.88 13.9835C70.723 13.9866 71.8461 13.9861 71.8467 13.9856C71.8935 13.9712 71.932 13.9367 71.9778 13.9202Z" stroke="white" stroke-width="1.62667" stroke-linecap="round" stroke-linejoin="round"/>
<path d="M50.0699 15.0353C50.1409 15.0039 52.0262 15.0317 52.0376 15.0353C52.0941 15.0559 52.1111 15.1412 52.1034 15.2976C52.0988 15.3696 52.1044 15.8314 52.1075 16.0438C52.107 16.3014 52.0957 16.4454 52.0376 16.6095C52.0329 16.626 51.9368 17.2889 51.9311 17.3675C51.9234 17.4807 51.9419 17.6761 51.9676 17.7682C51.9949 17.853 52.1065 18.0233 52.1795 18.0809C52.2638 18.1446 52.4603 18.2012 52.6321 18.2233C52.7498 18.2367 52.8604 18.2387 52.8769 18.23C52.8954 18.2146 52.595 18.0865 52.4068 18.0485C52.088 17.9862 51.0491 17.9883 50.6161 18.0058C50.1394 18.0361 49.2862 18.087 48.9087 18.1076C48.6479 18.1184 48.4638 18.1158 48.2936 18.0716C48.1763 18.0423 47.8637 18.1817 47.6435 18.3262C47.5685 18.3761 47.0706 18.7196 47.0542 18.7181C47.0413 18.7083 47.4713 18.3143 47.589 18.193C47.6693 18.1081 47.786 17.9374 47.7968 17.8782C47.8035 17.8366 47.7294 17.6761 47.7089 17.528C47.6857 17.3773 47.6394 15.4385 47.6389 15.4303C47.6369 15.3135 47.6646 15.2482 47.7377 15.2338C47.7515 15.2312 49.9943 15.1057 50.0046 15.1011C50.0319 15.0867 50.0416 15.0481 50.0699 15.0353Z" stroke="white" stroke-width="1.62667" stroke-linecap="round" stroke-linejoin="round"/>
<path d="M70.2724 15.1661C70.2956 15.1559 72.6155 15.1579 72.6335 15.1661C72.707 15.2016 72.6988 15.4351 72.6921 15.6974C72.6561 17.4953 72.5718 21.0593 72.5682 21.0696C72.543 21.1323 72.417 21.1904 72.3059 21.2007C72.2874 21.2023 69.9073 21.2233 68.9302 21.2295C68.5542 21.2239 67.9937 21.2084 67.9767 21.2007C67.9021 21.1621 67.8831 21.0804 67.9021 20.9024C67.9319 20.6412 67.7751 18.9009 67.7314 17.7926C67.7005 16.8957 67.6455 15.4464 67.6486 15.4284C67.6619 15.3626 67.6835 15.3189 67.7144 15.2973C67.7221 15.2921 70.1948 15.2376 70.2066 15.232C70.2349 15.2186 70.2441 15.179 70.2724 15.1661Z" stroke="white" stroke-width="1.62667" stroke-linecap="round" stroke-linejoin="round"/>
<path d="M58.0068 21.7255C58.0212 21.7188 59.507 21.7075 59.581 21.7255C59.67 21.7476 59.8084 21.8505 59.8433 21.8567C59.886 21.8654 59.9323 21.8448 59.9745 21.8567C59.9889 21.8613 60.3777 22.2465 60.4337 22.3817C60.463 22.4579 60.4713 22.5818 60.4543 22.6692C60.2846 23.5065 60.2218 24.6204 60.2249 24.8544C60.227 24.9609 60.2753 25.1702 60.3283 25.2432C60.3653 25.2936 60.5438 25.4021 60.5649 25.4643C60.5818 25.5204 60.5366 25.6279 60.4625 25.7354C60.3622 25.8742 60.1442 26.0213 59.9745 26.0547C59.8588 26.0758 57.7739 26.1777 57.0318 26.226C55.186 26.3499 52.504 26.5083 52.4968 26.514C52.4922 26.5176 52.4294 27.8655 52.4397 28.044C52.4552 28.2754 52.521 28.5012 52.628 28.6128C52.6953 28.6807 52.9941 28.8432 53.1407 28.8884C53.495 28.9928 54.4094 29.0227 54.7694 29.0273C55.6031 29.0206 57.3475 28.9625 58.2557 28.9069C58.7237 28.8673 60.4337 28.7249 60.499 28.7439C60.5767 28.7696 60.6507 28.8648 60.6749 28.9707C60.6981 29.0833 60.6934 29.1692 60.6595 29.2747C60.6148 29.4012 60.5644 29.5061 60.515 29.557C60.4507 29.6208 60.3432 29.6743 60.2537 29.6938C59.8901 29.7725 59.4052 29.8419 58.806 29.9031C57.8685 29.9828 56.1508 30.0312 55.2621 30.0327C54.8635 30.0245 53.9291 29.9921 53.6555 29.9648C53.1186 29.9108 52.3924 29.7339 52.1024 29.5992C51.9512 29.5272 51.6683 29.3127 51.5613 29.1775C51.4626 29.0494 51.3006 28.6858 51.2507 28.4816C51.1844 28.2034 51.116 27.2962 51.0738 26.9069C51.063 26.8046 51.0198 26.676 50.9653 26.5983C50.9139 26.5263 50.7915 26.514 50.7256 26.514C50.7066 26.5099 50.3137 26.155 50.2669 26.0547C50.2299 25.9689 50.2273 25.776 50.269 25.7076C50.3183 25.6315 50.4171 25.5878 50.5184 25.5842C50.5348 25.5837 52.7987 25.4649 53.762 25.4304C54.6702 25.4011 56.4429 25.3363 57.3079 25.3003C57.7672 25.2715 58.4651 25.1969 58.5972 25.2021C58.7032 25.2046 58.8873 25.2334 58.8976 25.2303C58.9577 25.2108 58.9984 25.1167 59.0051 25.0061C59.0472 24.2198 59.0601 22.9197 59.0606 22.9063C59.0632 22.7906 59.0308 22.7237 58.9526 22.7078C58.9367 22.7052 53.9435 22.8919 52.1667 22.9521C52.0489 22.9577 51.8802 22.966 51.7182 23.0169C51.6405 23.04 51.5351 23.0354 51.4287 23.0025C51.2975 22.9603 51.1324 22.8904 51.0537 22.8405C50.9828 22.7942 50.8424 22.6548 50.8141 22.5972C50.7822 22.5252 50.8038 22.3679 50.8573 22.2773C50.8974 22.2141 51.0759 22.0104 51.1196 21.9878C51.1895 21.9539 51.3438 21.9863 51.3819 21.9878C51.4045 21.9899 51.5963 21.9292 51.6441 21.9225C51.6822 21.9168 52.8851 21.923 53.3372 21.9251C53.4925 21.9256 53.7352 21.8536 53.8869 21.8541C54.3385 21.8561 55.528 21.8623 55.5799 21.8567C55.7764 21.8243 55.9903 21.7893 56.2886 21.7872C56.7618 21.7908 57.9307 21.796 57.941 21.7914C57.9693 21.7785 57.9785 21.7389 58.0068 21.7255Z" stroke="white" stroke-width="1.62667" stroke-linecap="round" stroke-linejoin="round"/>
<path d="M86.9984 24.0213C86.9398 23.9869 86.5901 23.7791 86.4738 23.6279C86.3833 23.5075 86.245 23.1481 86.2136 22.9655C86.2018 22.8822 86.2373 22.751 86.2923 22.7094C86.3818 22.6456 87.4381 22.6415 87.8393 22.642C88.3191 22.6451 89.1471 22.6472 89.4952 22.6461C89.6315 22.6466 90.026 22.5752 90.1103 22.5772C91.0823 22.5952 92.1458 22.5777 93.05 22.5402C94.7425 22.4625 98.4468 22.2866 100.459 22.1879C101.22 22.1498 102.558 22.083 103.134 22.0537C103.459 22.0382 103.647 22.0429 103.794 22.0943C103.9 22.1344 103.976 22.2203 103.987 22.316C103.993 22.3977 103.857 22.7469 103.743 22.9645C103.688 23.0648 103.606 23.1702 103.526 23.2381C103.397 23.344 103.049 23.4325 102.871 23.4371C101.922 23.4664 97.2563 23.5111 96.2637 23.559C96.1963 23.5626 96.0996 23.5615 96.0904 23.5651C96.0472 23.5831 96.0508 23.9565 96.0508 24.0311C96.0559 24.8894 96.059 26.6215 96.057 27.4953C96.0446 28.1176 95.9952 28.7661 95.9186 29.0577C95.8826 29.1909 95.7787 29.4655 95.7005 29.5843C95.6023 29.7303 95.4012 29.8697 95.2773 29.9463C95.1729 30.0338 95.1693 30.2354 95.1976 30.5151" stroke="white" stroke-width="1.62667" stroke-linecap="round" stroke-linejoin="round"/>
<path d="M86.9984 24.0213C88.6261 23.9231 91.1353 23.7878 92.0168 23.7508C92.8844 23.7564 94.0564 23.7585 94.3459 23.7169C94.5491 23.6855 94.959 23.5682 95.1693 23.4376C95.2423 23.3913 95.375 23.2885 95.3982 23.2622C95.4229 23.2324 95.3971 23.218 95.3436 23.2319C95.3092 23.2417 95.0865 23.325 95.0233 23.3558C94.8998 23.4201 94.7306 23.5698 94.6612 23.6881C94.5877 23.8171 94.5311 23.9894 94.5203 24.0943C94.4884 24.4214 94.437 25.1352 94.4257 25.5626C94.4149 27.5272 94.5897 29.4526 94.5902 29.467C94.5969 29.5719 94.6519 29.699 94.7399 29.791C94.8196 29.8728 95.1256 30.0183 95.1976 30.0559" stroke="white" stroke-width="1.62667" stroke-linecap="round" stroke-linejoin="round"/>
</svg>
